<svg width="216" height="241" viewBox="0 0 216 241" fill="none" xmlns="http://www.w3.org/2000/svg">
<path fill-rule="evenodd" clip-rule="evenodd" d="M108.453 0.642631C119.368 2.9593 122.268 15.0456 122.733 21.2471C124.041 24.2957 125.808 30.6718 127.323 40.6625C131.058 34.7132 145.027 17.2171 151.769 28.3688C155.297 34.2049 141.496 39.5201 127.797 43.9727C128.398 48.4277 128.945 53.5188 129.386 59.271C133.341 54.0703 141.354 46.7181 151.102 49.8882C156.642 51.6901 140.507 64.8446 129.731 64.2739C130.04 69.3061 130.268 74.7893 130.385 80.7376C136.481 71.7344 154.328 50.7867 163.155 65.2479C167.981 73.1545 149.201 80.3581 130.462 86.4007C130.47 87.576 130.475 88.7679 130.475 89.9763C130.475 93.7158 130.432 97.4231 130.353 101.084C135.773 93.2218 148.597 79.8983 164.456 85.0853C173.122 87.9197 140.376 109.564 130.198 106.832C130.02 112.381 129.761 117.801 129.444 123.04C140.445 104.201 163.16 102.019 161.422 110.272C157.771 127.616 137.744 131.551 128.841 131.908C128.357 138.33 127.796 144.404 127.202 150.015C141.879 137.303 160.999 125.219 159.209 133.722C155.556 151.076 135.506 155.006 126.612 155.359C125.211 167.511 123.713 177.044 122.646 182.602L120.091 182.111C121.237 176.14 122.894 165.486 124.384 151.885C101.276 151.719 83.2742 132.514 90.4433 126.711C105.322 114.669 120.105 135.398 125.224 143.689C125.905 136.554 126.516 128.8 126.98 120.628C107.984 114.376 84.7363 102.218 93.3701 99.3942C109.031 94.2719 121.732 107.201 127.267 115.096C127.554 108.997 127.753 102.699 127.833 96.2788C112.936 91.4723 94.5744 82.029 101.358 79.842C113.598 75.8957 123.529 85.8397 127.869 91.9324C127.872 91.2814 127.873 90.6293 127.873 89.9763C127.873 86.1474 127.828 82.4888 127.745 78.9978C109.036 72.961 90.3262 65.7682 95.1444 57.8745C103.803 43.6895 121.142 63.575 127.553 72.8368C127.266 65.4336 126.804 58.8697 126.237 53.11C117.383 52.7766 97.2261 48.8755 93.562 31.4702C91.7373 22.8033 113.619 31.7716 125.551 46.8992C125.36 45.3497 125.162 43.8716 124.959 42.4641C124.528 39.471 124.074 36.803 123.618 34.4492C108.728 33.7012 96.5422 22.1259 102.172 20.2948C110.579 17.5606 117.696 22.6537 122.031 27.4428C121.7 26.2021 121.38 25.1362 121.079 24.2402C112.157 14.4067 102.502 -0.620513 108.453 0.642631Z" fill="#E7FEDE"/>
<path d="M106.084 185.283C106.084 182.769 108.123 180.73 110.637 180.73H134.052C136.566 180.73 138.605 182.769 138.605 185.283V240.568H106.084V185.283Z" fill="#FFF0CA"/>
<path fill-rule="evenodd" clip-rule="evenodd" d="M28.6777 131.45C29.4977 127.439 29.7739 117.242 24.318 108.545C20.5135 113.625 22.8387 126.902 28.6777 131.45ZM38.7199 115.698C38.5124 119.128 36.5183 127.455 30.2024 133.323C28.2227 128.379 32.9963 118.118 38.7199 115.698ZM32.5516 137.831C33.4282 133.832 37.3102 124.398 45.8256 118.652C47.2441 124.835 39.7342 136.035 32.5516 137.831ZM54.4867 125.349C50.1811 127.094 40.1199 133.285 34.3219 144.093C41.1284 144.569 52.916 133.9 54.4867 125.349ZM28.6125 151.663C25.4068 148.304 15.9469 141.23 3.75267 139.812C5.80821 146.309 20.0724 153.343 28.6125 151.663ZM27.9297 156.568C23.8995 154.258 12.8155 150.165 0.721069 152.27C4.54265 157.915 20.2211 160.605 27.9297 156.568ZM56.0776 188.259C53.1537 184.945 44.3043 177.589 32.2962 174.686C33.8321 180.522 47.4594 188.51 56.0776 188.259ZM31.2897 180.076C34.4659 181.574 41.6116 186.622 44.783 194.828C39.3394 194.825 31.4141 186.412 31.2897 180.076ZM28.0655 181.457C24.38 184.315 13.9251 189.933 1.58863 189.543C4.59517 183.405 19.8218 178.535 28.0655 181.457ZM32.8323 160.52C37.4347 159.881 49.2474 160.218 59.6793 166.682C54.023 170.493 38.4731 167.14 32.8323 160.52ZM32.6864 153.901C37.0929 152.428 48.7668 150.594 60.2097 155.034C55.3508 159.818 39.4487 159.374 32.6864 153.901ZM59.7827 142.399C55.9362 145.003 45.1889 149.91 32.9708 148.711C36.3602 142.798 51.7944 138.948 59.7827 142.399ZM28.3709 175.448C24.4068 177.869 13.4414 182.27 1.29292 180.503C4.9554 174.753 20.5526 171.628 28.3709 175.448ZM29.5075 169.334C25.0539 171.526 13.1767 174.982 1.29666 171.27C3.67297 168.288 8.87865 166.451 14.3922 166.019C9.98115 165.924 5.79 164.727 3.72101 162.485C13.2801 158.718 23.2671 160.853 27.0657 162.391C24.7677 164.423 21.1035 165.588 17.2939 165.923C21.9597 165.98 26.5318 167.066 29.5075 169.334ZM31.8974 167.518C36.8607 167.387 49.0968 169.208 58.3336 177.542C51.464 181.003 36.0972 175.433 31.8974 167.518ZM6.09445 132.227C8.78932 135.312 16.7372 141.718 26.9701 142.663C25.235 136.561 13.2566 130.351 6.09445 132.227ZM27.5731 135.862C26.1628 132.019 21.0384 123.195 11.8231 118.653C11.2552 124.972 20.2131 135.053 27.5731 135.862Z" fill="#FBCCE4"/>
<path d="M26.688 121.393C27.5236 125.071 28.426 129.881 29.2045 135.367M29.2045 135.367C30.2116 132.23 32.5504 125.69 33.849 124.625M29.2045 135.367C29.315 136.146 29.423 136.939 29.528 137.744M25.7333 196.112C27.6475 191.777 28.9752 186.795 29.8453 181.472M29.8453 181.472C29.9685 180.718 30.0826 179.958 30.1878 179.191M29.8453 181.472C25.7694 181.251 15.5744 182.081 7.40148 187.176M29.528 137.744C27.372 135.906 22.8689 132.04 22.1051 131.28C21.1503 130.329 17.5221 125.481 16.3764 125.481M29.528 137.744C29.737 139.346 29.9338 140.997 30.1144 142.687M30.1144 142.687C32.3776 138.409 38.1264 128.808 43.0148 124.625M30.1144 142.687C30.218 143.657 30.3163 144.64 30.4083 145.634M30.4083 145.634C28.3407 143.543 21.7423 138.333 11.889 134.227M30.4083 145.634C30.4579 146.17 30.5057 146.708 30.5516 147.25M30.5516 147.25C32.701 145.824 37.8015 142.212 41.0096 139.17C44.2178 136.128 49.4116 131.565 51.6077 129.664M30.5516 147.25C30.6814 148.782 30.7957 150.337 30.8917 151.908M30.8917 151.908C28.7585 151.686 23.7855 150.843 20.9593 149.246C17.4266 147.25 11.889 144.398 9.78844 144.113M30.8917 151.908C30.9245 152.445 30.9551 152.984 30.9835 153.524M30.9835 153.524C32.7343 153.746 36.9804 154.456 39.9596 155.52C42.9384 156.585 51.8942 155.52 55.9996 154.855M30.9835 153.524C31.0514 154.816 31.1064 156.116 31.1468 157.422M30.8917 150.007C34.487 147.662 44.3706 143.086 55.1404 143.543M31.1468 157.422C28.6421 156.788 22.7543 155.52 19.2407 155.52C15.7272 155.52 9.2474 154.189 6.44672 153.524M31.1468 157.422C31.1714 158.212 31.1906 159.005 31.2041 159.798M31.2041 159.798C31.2273 161.159 31.2339 162.523 31.2221 163.886M31.2041 159.798C34.982 161.604 44.8669 165.255 54.1856 165.407M31.2221 163.886C26.4645 162.935 15.3453 161.604 8.92912 163.886M31.2221 163.886C31.2138 164.837 31.1966 165.789 31.1698 166.738M31.1698 166.738C31.9992 167.815 34.7846 170.16 39.2909 170.921C44.9244 171.871 48.8389 175.293 53.0399 176.149M31.1698 166.738C31.1348 167.978 31.0835 169.215 31.0145 170.445M31.0145 170.445C29.9224 169.558 26.6116 168.05 22.1051 169.114C17.5985 170.179 10.425 170.128 7.40148 169.97M31.0145 170.445C30.9591 171.432 30.8924 172.415 30.8136 173.392M30.8136 173.392C30.77 173.933 30.7227 174.471 30.6716 175.008M30.8136 173.392C34.5625 176.624 43.4539 183.526 49.0298 185.275M30.6716 175.008C25.9065 175.103 14.7724 176.073 8.35628 179.191M30.6716 175.008C30.5373 176.418 30.3768 177.814 30.1878 179.191M30.1878 179.191C31.6384 180.138 35.8077 183.885 40.8809 191.3" stroke="#FFB3DA" stroke-width="1.07135" stroke-linejoin="round"/>
<path d="M43.6451 195.689H9.82397V200.242H43.6451V195.689Z" fill="#FEDF92"/>
<path d="M11.45 200.242H42.0191L38.7671 240.567H14.702L11.45 200.242Z" fill="#FEDF92"/>
<path d="M174.377 236.014H157.466V240.567H174.377V236.014Z" fill="#FEDF92"/>
<path d="M118.442 177.64C129.629 174.778 142.724 177.315 147.873 178.941C136.328 173.9 125.759 165.283 120.231 161.543C134.377 162.193 142.67 166.258 153.239 174.551C145.564 168.047 135.623 150.703 131.613 142.843C136.057 145.066 147.418 152.957 157.304 166.746C150.149 152.437 150.745 140.079 151.938 135.689C153.239 141.055 163.808 158.616 165.434 171.624C165.434 154.551 169.987 135.852 170.475 133.9C174.54 139.266 172.588 166.096 171.45 173.575C175.353 153.803 189.77 144.632 196.653 140.404C195.027 142.356 191.19 148.209 188.849 156.014C186.507 163.819 180.122 171.678 176.166 177.315C178.496 175.797 181.857 169.835 188.849 164.795C196.05 159.603 206.193 157.64 211.775 156.014C207.602 159.049 199.71 167.299 195.027 174.063C190.344 180.827 183.157 181.543 177.792 183.494C181.748 183.223 185.662 185.348 195.027 183.006C204.393 180.665 212.48 183.169 215.353 184.144C209.445 187.451 195.157 194.063 185.271 194.063C175.385 194.063 168.469 191.136 166.247 189.673C161.965 191.787 151.743 196.014 145.109 196.014C136.816 196.014 124.946 193.25 118.93 194.063C124.458 190.323 133.076 187.722 149.174 187.396C138.117 186.909 124.133 182.03 118.442 177.64Z" fill="#C8F9B4"/>
<path d="M165.759 188.535L177.165 198.535H154.353L165.759 188.535Z" fill="#FBCCE4"/>
<path d="M165.759 198.291L177.165 208.291H154.353L165.759 198.291Z" fill="#FBCCE4"/>
<path d="M165.759 208.047L177.165 218.047H154.353L165.759 208.047Z" fill="#FBCCE4"/>
<path d="M187.06 217.152C187.06 222.759 184.833 228.135 180.869 232.099C176.904 236.064 171.528 238.291 165.922 238.291C160.316 238.291 154.939 236.064 150.975 232.099C147.011 228.135 144.784 222.759 144.784 217.152H165.922H187.06Z" fill="#FEDF92"/>
<g clip-path="url(#clip0_243_3995)">
<mask id="mask0_243_3995" style="mask-type:luminance" maskUnits="userSpaceOnUse" x="80" y="129" width="68" height="74">
<path d="M80.0418 129.717H147.001V202.568H80.0418V129.717Z" fill="white"/>
</mask>
<g mask="url(#mask0_243_3995)">
<path d="M113.204 169.51L101.201 129.717H120.619C120.619 129.717 125.44 136.814 124.905 144.582C124.418 151.64 122.715 161.948 122.408 165.541C122.374 165.939 122.785 166.198 123.16 166.057C130.931 163.145 136.799 176.106 140.037 185.561L136.689 188.775L114.386 171.241C113.823 170.799 113.411 170.194 113.204 169.51Z" fill="#7B371F"/>
<path d="M91.0278 163.62C91.0519 161.507 91.1986 154.686 92.0945 150.206C93.1659 144.85 97.4512 129.717 97.4512 129.717H109.37C109.37 134.466 108.861 145.507 106.826 151.679L102.906 163.564C102.792 163.911 103.056 164.266 103.413 164.341C109.571 165.634 105.17 183.677 103.879 194.132H98.3886L91.179 164.9C91.0755 164.48 91.0229 164.053 91.0278 163.62Z" fill="#7B371F"/>
<path d="M97.3271 129.717H120.982C121.092 129.717 121.196 129.764 121.268 129.847C124.131 133.131 125.708 137.34 125.708 141.696V152.751C125.708 153.342 125.228 153.822 124.637 153.822H96.8952C96.6669 153.822 96.4637 153.677 96.389 153.462L95.7437 151.597C95.5859 151.141 94.9532 151.11 94.7511 151.548L93.8451 153.511C93.7576 153.701 93.5677 153.822 93.3587 153.822H91.8819C91.178 153.822 90.6654 153.155 90.8468 152.475L96.8095 130.115C96.8721 129.88 97.0844 129.717 97.3271 129.717Z" fill="#FAB921"/>
<path d="M144.771 184.506C143.787 183.523 142.705 182.644 141.54 181.885L139.377 180.474C138.001 179.577 136.148 180.119 135.472 181.617L134.861 182.972C134.718 183.289 134.316 183.388 134.042 183.173L133.423 182.687C132.57 182.017 131.351 182.09 130.584 182.856L129.943 183.498C129.268 184.173 129.121 185.212 129.582 186.048L131.013 188.643C131.527 189.573 131.547 190.697 131.068 191.645L128.083 197.551C127.665 198.378 127.826 199.378 128.48 200.033L130.603 202.156C131.021 202.574 131.699 202.574 132.118 202.156L146.511 187.762C146.93 187.344 146.93 186.666 146.511 186.247L144.771 184.506Z" fill="black"/>
<path d="M145.375 185.111L130.603 199.883C130.394 200.093 130.394 200.432 130.603 200.641L130.981 201.02C131.191 201.229 131.53 201.229 131.739 201.02L146.511 186.247L145.375 185.111Z" fill="white"/>
<path d="M130.765 190.63L133.633 190.035L130.603 191.55L133.119 191.685" stroke="#FAB921" stroke-width="0.535674" stroke-linejoin="bevel"/>
<path d="M106.022 199.035C106.022 197.645 105.878 196.258 105.591 194.897L105.059 192.37C104.721 190.762 103.027 189.835 101.49 190.417L100.1 190.943C99.7745 191.066 99.4199 190.851 99.3785 190.506L99.2847 189.725C99.1555 188.648 98.2419 187.837 97.1573 187.837H96.2502C95.2959 187.837 94.4566 188.469 94.1917 189.386L93.3693 192.232C93.0744 193.253 92.2941 194.062 91.2848 194.394L84.9975 196.46C84.1181 196.749 83.5237 197.57 83.5237 198.495V201.497C83.5237 202.089 84.0034 202.568 84.595 202.568H104.951C105.542 202.568 106.022 202.089 106.022 201.497V199.035Z" fill="black"/>
<path d="M106.022 199.89H85.1307C84.8349 199.89 84.595 200.13 84.595 200.426V200.961C84.595 201.257 84.8349 201.497 85.1307 201.497H106.022V199.89Z" fill="white"/>
<path d="M91.7884 193.462L94.2372 195.069L91.0231 193.998L92.7067 195.872" stroke="#FAB921" stroke-width="0.535674" stroke-linejoin="bevel"/>
</g>
<path d="M119.957 121.414H98.3373C98.3373 125.967 97.4512 129.717 97.4512 129.717H120.485L120.454 129.608C119.697 126.945 119.528 124.149 119.957 121.414Z" fill="#7B371F"/>
<path d="M120.753 102.13H109.407C104.269 102.13 99.8536 105.778 98.8853 110.824L97.1364 119.939C96.8828 121.26 97.8954 122.486 99.2407 122.486H119.682C120.273 122.486 120.753 122.006 120.753 121.414V102.13Z" fill="#FAB921"/>
<path d="M120.753 119.004C119.688 119.004 118.666 118.143 117.912 116.611C117.159 115.079 116.735 113.001 116.735 110.835C116.735 108.668 117.159 106.59 117.912 105.058C118.666 103.526 119.688 102.666 120.753 102.666V110.835V119.004Z" fill="#FDBD28"/>
<path d="M131.14 123.2L124.353 104.649C123.799 103.136 122.36 102.13 120.749 102.13C117.909 102.13 116.046 105.109 117.272 107.67C119.443 112.205 122.45 118.6 124.401 123.209C124.614 123.713 124.406 124.286 123.959 124.601C118.089 128.736 114.436 141.321 113.923 143.243C113.428 145.101 111.671 149.596 111.411 150.258C111.389 150.315 111.378 150.372 111.375 150.432L111.255 153.676C111.249 153.852 111.329 154.019 111.469 154.125L111.625 154.242C111.943 154.48 112.401 154.302 112.473 153.911L112.968 151.239C112.98 151.176 113.003 151.116 113.036 151.061L114.211 149.102C114.288 148.974 114.485 149.048 114.458 149.195L113.942 151.982C113.929 152.048 113.93 152.115 113.942 152.181L114.534 155.255C114.57 155.446 114.707 155.601 114.89 155.662L115.037 155.711C115.4 155.832 115.768 155.546 115.741 155.165L115.537 152.314C115.533 152.249 115.54 152.184 115.559 152.121L116.208 149.965C116.251 149.822 116.459 149.845 116.47 149.993L116.592 151.686C116.598 151.77 116.624 151.851 116.667 151.923L118.412 154.831C118.53 155.028 118.762 155.128 118.987 155.078L119.169 155.038C119.502 154.963 119.682 154.601 119.539 154.291L118.386 151.775C118.358 151.712 118.341 151.644 118.338 151.574L118.285 150.288C118.278 150.122 118.519 150.094 118.55 150.258L118.693 151.006C118.725 151.177 118.838 151.321 118.995 151.393L121.372 152.482C121.677 152.622 122.034 152.451 122.115 152.125L122.141 152.02C122.193 151.813 122.117 151.596 121.948 151.466L120.673 150.485C120.553 150.393 120.478 150.255 120.466 150.105L120.368 148.932C120.357 148.805 120.396 148.678 120.476 148.578C121.359 147.474 121.426 145.926 120.642 144.75L120.619 144.716L131.024 124.934C131.306 124.398 131.348 123.768 131.14 123.2Z" fill="#7B371F"/>
<path d="M111.379 153.555C111.379 153.851 111.559 154.09 111.781 154.09C112.002 154.09 112.182 153.851 112.182 153.555C112.182 153.259 112.002 153.019 111.781 153.019C111.559 153.019 111.379 153.259 111.379 153.555Z" fill="#FAC798"/>
<path d="M114.593 154.894C114.593 155.19 114.773 155.43 114.995 155.43C115.216 155.43 115.396 155.19 115.396 154.894C115.396 154.598 115.216 154.358 114.995 154.358C114.773 154.358 114.593 154.598 114.593 154.894Z" fill="#FAC798"/>
<path d="M118.426 154.571C118.561 154.842 118.814 154.967 118.989 154.849C119.165 154.732 119.198 154.417 119.063 154.145C118.927 153.874 118.675 153.749 118.499 153.867C118.324 153.984 118.291 154.299 118.426 154.571Z" fill="#FAC798"/>
<path d="M121.213 152.178C121.506 152.272 121.777 152.184 121.819 151.983C121.861 151.782 121.658 151.543 121.365 151.45C121.072 151.356 120.8 151.444 120.758 151.645C120.717 151.846 120.92 152.085 121.213 152.178Z" fill="#FAC798"/>
<path d="M102.475 78.1217C102.205 78.374 101.752 78.4564 101.429 78.2769C101.03 78.0546 100.57 77.928 100.081 77.928C98.5434 77.928 97.297 79.1785 97.297 80.721C97.297 81.1846 97.4096 81.6218 97.6088 82.0066C97.6411 82.0689 97.5944 82.1459 97.5243 82.1459C95.8926 82.1459 94.5699 83.4729 94.5699 85.1098C94.5699 85.6275 94.7022 86.1142 94.9347 86.5377C95.1677 86.962 94.9802 87.7476 94.5883 88.0318C93.8888 88.5391 93.4337 89.3646 93.4337 90.2967C93.4337 90.9525 93.6589 91.5555 94.0361 92.032C94.2502 92.3025 94.2518 92.7169 94.0707 93.0105C93.8829 93.3151 93.7745 93.6741 93.7745 94.0586C93.7745 94.7591 94.1345 95.3754 94.6789 95.7313C94.9349 95.8986 95.095 96.21 95.0522 96.5128C95.0339 96.6421 95.0244 96.7742 95.0244 96.9085C95.0244 98.451 96.2708 99.7015 97.8083 99.7015C98.1623 99.7015 98.5008 99.635 98.8122 99.5142C99.121 99.3945 99.4962 99.4982 99.699 99.7601C100.208 100.418 101.004 100.841 101.899 100.841C102.004 100.841 102.107 100.835 102.209 100.824C102.491 100.793 102.776 100.935 102.918 101.181C103.428 102.068 104.384 102.665 105.478 102.665C106.802 102.665 107.923 101.792 108.298 100.588C108.384 100.312 108.636 100.105 108.924 100.123C109.287 100.146 109.653 100.157 110.023 100.157C112.177 100.157 114.215 99.7639 116.033 99.0614C116.203 98.9958 116.393 99.0193 116.551 99.111C117.07 99.4141 117.674 99.5874 118.318 99.5874C119.688 99.5874 120.874 98.8035 121.457 97.6585C121.583 97.4122 121.853 97.2645 122.128 97.2912C122.239 97.302 122.352 97.3075 122.466 97.3075C124.38 97.3075 125.931 95.7508 125.931 93.8306C125.931 93.6516 125.918 93.4758 125.892 93.3041C125.847 93.0091 126.009 92.7109 126.26 92.5502C126.814 92.196 127.181 91.5744 127.181 90.8667C127.181 90.4483 127.053 90.06 126.833 89.7393C126.661 89.4871 126.633 89.1387 126.79 88.8761C127.038 88.458 127.181 87.9691 127.181 87.4468C127.181 86.268 126.453 85.2598 125.424 84.8498C125.111 84.7254 124.905 84.3828 124.909 84.0464C124.909 84.0399 124.909 84.0334 124.909 84.0269C124.909 83.366 124.588 82.7801 124.095 82.4171C123.84 82.2292 123.693 81.8922 123.774 81.5857C123.847 81.3098 123.886 81.0199 123.886 80.721C123.886 78.8637 122.385 77.3581 120.534 77.3581C120.217 77.3581 119.911 77.4021 119.62 77.4845C119.341 77.5636 119.034 77.4519 118.843 77.2344C118.479 76.8209 117.946 76.5601 117.352 76.5601C117.293 76.5601 117.233 76.5627 117.175 76.5679C116.814 76.5999 116.416 76.3927 116.236 76.079C115.893 75.4808 115.249 75.0781 114.512 75.0781C113.922 75.0781 113.391 75.336 113.027 75.7456C112.781 76.0225 112.335 76.147 111.996 75.9973C111.653 75.8461 111.274 75.7621 110.875 75.7621C110.544 75.7621 110.225 75.8204 109.93 75.9274C109.684 76.0165 109.402 75.9622 109.207 75.7877C108.715 75.3464 108.065 75.0781 107.353 75.0781C106.122 75.0781 105.077 75.8799 104.71 76.9914C104.594 77.3412 104.199 77.586 103.831 77.586C103.307 77.586 102.83 77.7894 102.475 78.1217Z" fill="black"/>
<path fill-rule="evenodd" clip-rule="evenodd" d="M104.272 96.6608C103.679 95.6134 103.344 94.3643 103.344 93.0231C103.344 92.5056 103.497 92.1295 103.663 91.7248C103.817 91.3468 103.867 90.9386 103.914 90.533C104.238 87.7291 106.781 86.3271 109.37 86.3271C112.628 86.3271 113.636 89.0717 114.36 91.0466C114.531 91.5102 114.685 91.9314 114.85 92.2647C114.996 92.5617 115.373 92.528 115.537 92.2404C116.082 91.2865 117.539 91.6733 117.539 92.7719V93.5587C117.539 94.1504 117.059 94.6301 116.468 94.6301C115.89 94.6301 115.401 95.0336 115.192 95.5719C115.172 95.625 115.15 95.6779 115.128 95.7303V101.862C115.128 104.229 113.21 106.147 110.843 106.147H110.155C108.746 106.147 107.72 104.81 108.086 103.449L108.806 100.769C108.683 100.783 108.559 100.79 108.433 100.79C107.361 100.79 106.411 100.266 105.827 99.4589C105.428 98.907 105.112 98.2834 104.799 97.6636C104.628 97.324 104.456 96.9856 104.272 96.6608Z" fill="#7B371F"/>
<path d="M108.165 91.416L107.978 92.7262C107.924 93.0995 107.803 93.4599 107.62 93.7895L107.208 94.5307C106.916 95.056 107.296 95.7014 107.897 95.7014" stroke="black" stroke-width="0.535674"/>
<path d="M106.29 94.6304C106.29 94.9262 106.53 95.166 106.826 95.166H107.093" stroke="black" stroke-width="0.535674"/>
<path d="M108.7 95.166C108.996 95.166 109.236 94.9262 109.236 94.6304" stroke="black" stroke-width="0.535674"/>
<path d="M107.96 96.5219L107.432 96.7919C107.388 96.8141 107.335 96.8054 107.298 96.7737C107.213 96.7011 107.078 96.6024 106.97 96.5375C106.934 96.5164 106.89 96.5191 106.858 96.5448C106.385 96.9238 106.523 97.584 106.912 97.9419C106.688 98.3591 106.912 98.9153 107.761 98.9153C108.61 98.9153 109.861 97.9419 110.04 97.4319C109.621 96.9249 108.552 96.6124 108.031 96.5117C108.007 96.5071 107.982 96.5108 107.96 96.5219Z" fill="#C61800"/>
<path d="M109.236 92.2197C109.236 92.6635 109.596 93.0232 110.04 93.0232" stroke="black" stroke-width="0.535674"/>
<path d="M107.093 92.2197C107.093 92.6635 106.734 93.0232 106.29 93.0232" stroke="black" stroke-width="0.535674"/>
<path d="M112.45 91.4158C111.563 90.3445 110.124 90.3445 109.236 91.4158" stroke="black" stroke-width="0.535674"/>
<path d="M103.879 91.4158C104.767 90.3445 106.206 90.3445 107.093 91.4158" stroke="black" stroke-width="0.535674"/>
<path d="M109.772 91.9517C110.363 91.2375 111.323 91.2375 111.914 91.9517C111.057 92.9159 110.129 92.3535 109.772 91.9517Z" fill="white"/>
<path d="M104.415 91.9517C105.007 91.2375 105.966 91.2375 106.558 91.9517C105.701 92.9159 104.772 92.3535 104.415 91.9517Z" fill="white"/>
<path d="M110.843 92.4874C110.547 92.4874 110.307 92.2475 110.307 91.9517C110.307 91.6558 110.547 91.416 110.843 91.416C111.139 91.416 111.379 91.6558 111.379 91.9517C111.379 92.2475 111.139 92.4874 110.843 92.4874Z" fill="black"/>
<path d="M105.486 92.4874C105.191 92.4874 104.951 92.2475 104.951 91.9517C104.951 91.6558 105.191 91.416 105.486 91.416C105.782 91.416 106.022 91.6558 106.022 91.9517C106.022 92.2475 105.782 92.4874 105.486 92.4874Z" fill="black"/>
</g>
<path d="M64.7607 211.261C61.6232 211.261 59.8066 213.172 59.8066 216.124C59.8066 217.544 60.3028 218.682 60.91 219.501L61.8001 226.546H64.79V220.674C65.9246 221.207 66.988 222.758 67.9302 224.133C68.8095 225.417 69.5832 226.546 70.2102 226.546H83.9337C84.2219 226.546 84.482 226.362 84.5106 226.078C84.7503 223.707 81.1526 220.987 76.1549 220.987C74.8105 220.987 72.83 218.703 70.7884 216.348C68.6173 213.845 66.3776 211.261 64.7607 211.261Z" fill="#6CBBD7"/>
<path d="M35.7416 216.124C35.7416 213.172 38.2284 211.261 40.045 211.261C40.9809 211.261 44.2125 213.845 45.4694 216.348C46.6512 218.703 47.7978 220.987 48.5764 220.987C51.4697 220.987 52.5933 223.707 52.4547 226.078C52.4382 226.362 52.2876 226.546 52.1208 226.546H42.083C41.7201 226.546 41.2723 225.417 40.763 224.133C40.2177 222.758 39.4814 221.505 39.4814 221.505L38.9452 226.546H37.0424L36.6986 219.501C36.3471 218.682 35.7416 217.544 35.7416 216.124Z" fill="#6CBBD7"/>
<path d="M45.0105 208.995L54.4046 185.578C54.5367 185.249 54.6268 184.904 54.6726 184.552L58.6684 154.025L66.9611 138.09H43.3838C43.3838 138.09 37.5302 146.708 38.1806 156.139C38.7991 165.106 41.9165 177.66 42.2215 181.333C42.2463 181.629 42.0394 181.875 41.7715 182.003C36.0203 184.759 39.1562 209.073 39.1562 212.399C39.3188 221.668 42.7341 220.855 45.0105 220.855C49.4007 220.855 42.6664 214.838 45.0105 208.995Z" fill="#7B371F"/>
<path d="M79.3162 179.549C79.2973 177.391 79.1516 168.636 78.018 162.968C76.7172 156.464 71.5139 138.09 71.5139 138.09H57.0424C57.0424 143.857 57.6602 157.263 60.1318 164.757L64.8908 179.188C65.0297 179.608 64.7084 180.04 64.2749 180.131C57.2895 181.597 61.4957 200.819 63.3562 213.691C63.5981 215.364 64.445 216.895 65.7611 217.955L68.4573 220.127C69.1728 220.703 70.0635 221.017 70.9819 221.017H73.1565C73.8924 221.017 74.2742 220.14 73.7728 219.601C71.8537 217.54 71.0921 214.656 71.7432 211.916L79.2043 180.524C79.2804 180.203 79.3188 179.878 79.3162 179.549Z" fill="#7B371F"/>
<path d="M20.233 188.096C24.2987 177.915 36.1673 148.59 41.8837 138.704C42.1117 138.309 42.5243 138.09 42.9803 138.09H71.7178C72.2762 138.09 72.7722 138.446 72.9507 138.976L89.5435 188.193C90.112 189.879 88.8577 191.626 87.0785 191.626H22.6508C20.8164 191.626 19.5526 189.8 20.233 188.096Z" fill="#219653"/>
<path d="M73.0046 130.333L58.1373 112.529C56.8856 111.03 56.9662 108.39 57.9503 106.691C59.6856 103.695 63.6966 104.043 65.6394 106.886C68.9861 111.782 73.6992 118.581 77.3155 123.408C77.8218 124.084 78.8306 124.088 79.4394 123.496C80.0482 122.903 82.6426 119.317 87.9623 117.976C89.5035 117.587 90.841 116.58 91.5207 115.141L92.1724 113.761C92.3148 113.459 92.5317 113.198 92.8026 113.003L95.8758 110.789C96.2062 110.551 96.6023 110.421 97.0085 110.418L99.1477 110.402C99.6589 110.398 99.9714 110.958 99.7015 111.394L99.4794 111.753C99.2059 112.194 98.7685 112.51 98.2641 112.631L97.5591 112.8C97.4514 112.826 97.348 112.867 97.2521 112.923L97.0638 113.032C96.6238 113.287 96.4716 113.849 96.7236 114.288C96.9314 114.649 97.3581 114.823 97.7613 114.711L100.337 113.995C100.648 113.909 100.933 113.747 101.167 113.524L103.901 110.921C104.149 110.685 104.536 110.677 104.79 110.903C104.983 111.074 105.058 111.344 104.979 111.592L104.41 113.382C104.34 113.603 104.311 113.834 104.324 114.064C104.351 114.541 104.197 115.012 103.892 115.381L103.76 115.541C103.578 115.764 103.469 116.037 103.449 116.324L103.434 116.551C103.413 116.866 103.235 117.151 102.962 117.309L102.905 117.342C102.683 117.471 102.534 117.696 102.502 117.951C102.471 118.206 102.322 118.431 102.1 118.56L101.049 119.169C100.858 119.28 100.643 119.345 100.422 119.359C100.166 119.375 99.9174 119.461 99.7051 119.606C97.5015 121.11 95.1379 122.389 92.6748 123.408L75.9906 131.062C74.9389 131.497 73.7305 131.202 73.0046 130.333Z" fill="#7B371F"/>
<path d="M98.5672 111.618C98.1435 111.703 97.7545 111.542 97.6979 111.26C97.6417 110.977 97.9396 110.68 98.363 110.595C98.7867 110.511 99.176 110.671 99.2322 110.954C99.2885 111.236 98.9909 111.534 98.5672 111.618Z" fill="#F23116"/>
<path d="M45.8228 104.594H62.4082C66.4891 110.93 69.3119 117.994 70.7223 125.397L72.8459 136.546C72.9984 137.347 72.3838 138.09 71.5678 138.09H43.0706C42.2875 138.09 41.682 137.403 41.7799 136.626L45.8228 104.594Z" fill="#219653"/>
<path d="M57.8983 112.639C56.4713 110.127 57.3181 106.914 59.7897 105.463L60.0693 105.299C62.5409 103.848 65.7015 104.709 67.1285 107.222L69.8729 110.845C70.2297 111.474 70.018 112.277 69.4001 112.639L61.9236 117.101C61.3058 117.464 60.5158 117.249 60.1591 116.62L57.8983 112.639Z" fill="#219653"/>
<path d="M42.7259 132.886L40.5519 114.414C40.2687 112.008 41.9867 109.826 44.3932 109.536C47.0313 109.22 49.3496 111.294 49.3584 113.952C49.374 118.611 49.481 125.368 49.9295 129.054C50.0316 129.893 50.9061 130.403 51.7308 130.195C57.0352 128.861 64.6248 129.956 69.9155 131.464C71.4485 131.901 73.1132 131.7 74.4225 130.795L75.6781 129.927C75.9526 129.737 76.2713 129.62 76.6039 129.587L80.3792 129.212C80.7854 129.172 81.1942 129.258 81.5483 129.46L83.4147 130.519C83.8609 130.772 83.8527 131.414 83.4004 131.656L83.028 131.856C82.5698 132.101 82.0322 132.155 81.5334 132.007L80.8371 131.799C80.7304 131.767 80.6202 131.751 80.509 131.751H80.2908C79.7812 131.751 79.3678 132.161 79.3678 132.668C79.3678 133.085 79.6514 133.45 80.0579 133.555L82.653 134.228C82.9662 134.309 83.2947 134.312 83.6091 134.237L87.2843 133.355C87.6176 133.275 87.9568 133.462 88.0654 133.786C88.1477 134.031 88.0771 134.302 87.8852 134.477L86.4966 135.742C86.3256 135.897 86.1848 136.083 86.081 136.289C85.8664 136.716 85.4976 137.046 85.0485 137.213L84.854 137.286C84.5838 137.386 84.3526 137.569 84.1926 137.807L84.0657 137.996C83.8901 138.258 83.5939 138.416 83.2771 138.416H83.2118C82.9545 138.416 82.7119 138.536 82.5574 138.741C82.4033 138.946 82.1607 139.066 81.9035 139.066H80.6869C80.4651 139.066 80.2459 139.014 80.0475 138.916C79.817 138.801 79.5581 138.751 79.3009 138.77C76.6358 138.966 73.9438 138.888 71.295 138.534L44.9555 135.016C43.8244 134.866 42.9223 134.003 42.7259 132.886Z" fill="#7B371F"/>
<path d="M39.3187 111.237C39.3187 107.568 42.293 104.594 45.9623 104.594C48.2202 104.594 50.0504 106.424 50.0504 108.682V114.35C50.0504 115.068 49.468 115.651 48.7496 115.651H40.6195C39.9012 115.651 39.3187 115.068 39.3187 114.35V111.237Z" fill="#219653"/>
<path d="M82.0107 131.198C81.6016 131.06 81.3447 130.726 81.4371 130.453C81.5298 130.18 81.9363 130.072 82.3454 130.21C82.7545 130.349 83.0114 130.682 82.919 130.955C82.8267 131.228 82.4198 131.337 82.0107 131.198Z" fill="#F23116"/>
<path d="M87.2377 134.642C86.8637 134.858 86.468 134.874 86.3541 134.676C86.2403 134.479 86.4514 134.144 86.8254 133.928C87.1997 133.712 87.5951 133.697 87.7089 133.894C87.8231 134.091 87.612 134.426 87.2377 134.642Z" fill="#F23116"/>
<path d="M44.4746 88.0515C44.4489 87.7646 44.4356 87.4742 44.4356 87.1806C44.4356 81.8905 48.7429 77.6021 54.0564 77.6021C57.2232 77.6021 60.0326 79.1256 61.7858 81.4765C68.2258 80.4011 73.2265 81.2359 74.2518 83.9653C75.7071 87.8404 68.5998 94.0674 58.377 97.8733C48.1539 101.679 38.6869 101.623 37.2313 97.7481C36.2388 95.1051 39.2294 91.3682 44.4746 88.0515Z" fill="#2D9CDB"/>
<path fill-rule="evenodd" clip-rule="evenodd" d="M63.2317 97.9541C63.9523 96.6823 64.3595 95.1658 64.3595 93.5372C64.3595 92.9089 64.1728 92.4523 63.9722 91.961C63.8268 91.6058 63.7634 91.2267 63.7 90.8475C63.6818 90.7366 63.6632 90.626 63.6424 90.5158C63.0385 87.279 58.4603 86.7847 55.579 87.8462C52.0262 89.1551 51.2401 90.9967 50.7149 92.227C50.6505 92.3782 50.5897 92.52 50.5286 92.6507C50.3218 93.0917 49.7956 93.0097 49.554 92.587C48.8922 91.4289 47.1237 91.8985 47.1237 93.2322V94.1876C47.1237 94.906 47.7062 95.4884 48.4245 95.4884C49.1253 95.4884 49.7201 95.9785 49.9731 96.6319C49.9982 96.6966 50.0239 96.7606 50.0505 96.8244V104.269C50.0505 107.143 52.38 109.472 55.2538 109.472H56.0889C57.8001 109.472 59.0453 107.848 58.6014 106.196L57.7273 102.942C57.8762 102.959 58.0275 102.968 58.1806 102.968C59.4821 102.968 60.6349 102.331 61.3439 101.352C61.8291 100.682 62.2119 99.9242 62.592 99.1717C62.8005 98.7593 63.0083 98.3486 63.2317 97.9541Z" fill="#7B371F"/>
<path d="M58.5057 91.5859L58.7331 93.1768C58.7978 93.6302 58.9448 94.0676 59.1672 94.4676L59.6674 95.3677C60.0215 96.0054 59.5604 96.7892 58.8309 96.7892" stroke="black" stroke-width="0.535674"/>
<path d="M60.7822 95.4883C60.7822 95.8476 60.4911 96.1387 60.1318 96.1387H59.8066" stroke="black" stroke-width="0.535674"/>
<path d="M57.8554 96.1387C57.496 96.1387 57.205 95.8476 57.205 95.4883" stroke="black" stroke-width="0.535674"/>
<path d="M59.8065 98.5585L56.2865 97.7646C56.2865 97.7646 55.8049 99.4193 57.6358 99.9487C59.4667 100.478 59.8065 98.5585 59.8065 98.5585Z" fill="#C61800"/>
<path d="M56.5546 91.2608C55.8362 90.3935 54.6713 90.3935 53.9529 91.2608" stroke="black" stroke-width="0.535674"/>
<path d="M56.5545 92.2364C55.8361 91.3691 54.6713 91.3691 53.9529 92.2364C54.9935 93.4072 56.121 92.7242 56.5545 92.2364Z" fill="white"/>
<path d="M63.0586 92.2364C62.3402 91.3691 61.1753 91.3691 60.457 92.2364C61.4976 93.4072 62.6251 92.7242 63.0586 92.2364Z" fill="white"/>
<path d="M63.0586 91.2608C62.3402 90.3935 61.1753 90.3935 60.457 91.2608" stroke="black" stroke-width="0.535674"/>
<path d="M62.7334 93.2118C62.1945 92.7783 61.321 92.7783 60.7822 93.2118" stroke="black" stroke-width="0.535674"/>
<path d="M56.2294 93.2118C55.6905 92.7783 54.817 92.7783 54.2781 93.2118" stroke="black" stroke-width="0.535674"/>
<path d="M55.2537 92.8868C55.6129 92.8868 55.9041 92.5956 55.9041 92.2363C55.9041 91.8771 55.6129 91.5859 55.2537 91.5859C54.8945 91.5859 54.6033 91.8771 54.6033 92.2363C54.6033 92.5956 54.8945 92.8868 55.2537 92.8868Z" fill="black"/>
<path d="M61.7578 92.8868C62.117 92.8868 62.4082 92.5956 62.4082 92.2363C62.4082 91.8771 62.117 91.5859 61.7578 91.5859C61.3986 91.5859 61.1074 91.8771 61.1074 92.2363C61.1074 92.5956 61.3986 92.8868 61.7578 92.8868Z" fill="black"/>
<defs>
<clipPath id="clip0_243_3995">
<rect width="69.6376" height="130.169" fill="white" transform="translate(77.3635 72.3994)"/>
</clipPath>
</defs>
</svg>
