<svg width="233" height="264" viewBox="0 0 233 264" fill="none" xmlns="http://www.w3.org/2000/svg">
<g clip-path="url(#clip0_243_3900)">
<path d="M148.087 178.114L157.024 152.274L150.241 116.262H132.176C131.158 116.262 130.277 116.97 130.056 117.964L114.34 189.027C113.503 192.81 113.579 196.738 114.56 200.486L120.202 222.035C120.669 223.819 121.871 225.322 123.509 226.17L127.319 228.141C127.914 228.449 128.334 229.014 128.456 229.673L130.976 243.25H146.442L147.724 229.431C147.772 228.913 148.004 228.43 148.379 228.07L153.617 223.016C155.08 221.605 155.801 219.592 155.565 217.573L152.469 191.095C152.256 189.28 151.415 187.596 150.089 186.336C147.868 184.225 147.085 181.011 148.087 178.114Z" fill="#333333"/>
<path fill-rule="evenodd" clip-rule="evenodd" d="M154.591 159.309L148.087 178.114C147.085 181.011 147.868 184.225 150.089 186.336C151.415 187.596 152.256 189.28 152.469 191.095L153.17 197.091C148.773 193.817 142.915 187.893 142.915 178.128V127.116L154.591 159.309ZM147 237.234C139.605 236.613 130.207 229.967 136.674 230.225C141.109 230.403 145.664 228.962 148.415 228.034L148.379 228.069C148.004 228.43 147.772 228.913 147.724 229.431L147 237.234Z" fill="#333333"/>
<path d="M183.621 120.692L181.276 117.218C180.873 116.62 180.199 116.262 179.477 116.262H137.488L146.352 140.86C147.674 144.528 148.571 148.337 149.025 152.21L153.604 191.237C153.894 193.706 154.448 196.137 155.256 198.488L164.616 225.696C165.301 227.687 166.906 229.224 168.924 229.822L171.837 230.685C172.578 230.905 173.146 231.501 173.33 232.251L176.018 243.25H189.585V229.979C189.585 229.282 189.92 228.627 190.485 228.219L191.77 227.291C193.466 226.067 194.47 224.103 194.47 222.012V194.16C194.47 191.684 193.64 189.279 192.114 187.329C190.482 185.244 189.651 182.644 189.77 179.999L191.057 151.485C191.161 149.174 191.034 146.858 190.678 144.571L189.151 134.775C188.365 129.731 186.477 124.922 183.621 120.692Z" fill="#333333"/>
<path d="M149.97 256.713C149.97 253.896 149.677 251.086 149.096 248.328L148.019 243.209C147.333 239.951 143.902 238.073 140.788 239.252L137.97 240.317C137.311 240.567 136.592 240.131 136.509 239.432L136.319 237.849C136.057 235.667 134.206 234.024 132.008 234.024H130.17C128.237 234.024 126.536 235.304 125.999 237.161L124.333 242.929C123.736 244.997 122.154 246.637 120.109 247.309L107.37 251.494C105.589 252.08 104.384 253.743 104.384 255.619V261.701C104.384 262.9 105.356 263.872 106.555 263.872H147.799C148.998 263.872 149.97 262.9 149.97 261.701V256.713Z" fill="black"/>
<path d="M192.299 252.476L191.132 241.485C190.951 239.786 188.829 239.121 187.712 240.414C187.541 240.611 187.229 240.589 187.088 240.37L184.273 236.011C183.473 234.772 182.1 234.024 180.626 234.024H177.212C175.282 234.024 173.584 235.298 173.044 237.151L171.013 244.117C170.613 245.491 169.772 246.694 168.619 247.542L163.678 251.174C162.566 251.993 161.909 253.291 161.909 254.672V261.701C161.909 262.9 162.881 263.872 164.079 263.872H190.128C191.327 263.872 192.299 262.9 192.299 261.701V252.476Z" fill="black"/>
<path d="M149.97 258.445H107.64C107.041 258.445 106.555 258.931 106.555 259.531V260.616C106.555 261.216 107.041 261.701 107.64 261.701H149.97V258.445Z" fill="white"/>
<path d="M192.299 258.445H183.073C182.473 258.445 181.988 258.931 181.988 259.531V260.616C181.988 261.216 182.473 261.701 183.073 261.701H192.299V258.445Z" fill="white"/>
<path fill-rule="evenodd" clip-rule="evenodd" d="M189.585 237.809V229.979C189.585 229.281 189.92 228.627 190.485 228.219L190.771 228.013C187.951 228.938 183.161 230.462 178.732 231.039C176.162 231.375 177.181 231.664 179.439 232.305C182.489 233.171 187.802 234.678 189.585 237.809Z" fill="#333333"/>
<path d="M179.817 60.3657H156.828C146.417 60.3657 137.471 67.7576 135.509 77.9823L131.965 96.4498C131.452 99.1269 133.503 101.61 136.229 101.61H177.646C178.845 101.61 179.817 100.638 179.817 99.4389V60.3657Z" fill="#FDBD28"/>
<path d="M179.817 94.5548C177.658 94.5548 175.587 92.8112 174.061 89.707C172.534 86.6029 171.677 82.3928 171.677 78.003C171.677 73.6132 172.534 69.4031 174.061 66.299C175.587 63.1948 177.658 61.4512 179.817 61.4512V78.003V94.5548Z" fill="#2F80ED"/>
<path fill-rule="evenodd" clip-rule="evenodd" d="M161.366 107.544V116.261H179.817V107.035L178.269 62.6514C170.212 65.3257 165.542 73.8551 167.768 82.1608L168.847 86.1886C168.869 86.2706 168.891 86.352 168.915 86.4328C169.459 88.3463 169.209 90.4449 168.306 92.2173C168.067 92.684 167.853 93.1686 167.664 93.67C167.125 95.1006 166.833 96.5636 166.767 98.0126C166.669 100.149 165.724 102.24 164.183 103.722C163.057 104.805 162.097 106.088 161.366 107.544Z" fill="#FDBD28"/>
<path fill-rule="evenodd" clip-rule="evenodd" d="M152.539 60.6841C139.493 62.4874 128.512 71.8232 124.812 84.7602L120.023 101.502C119.733 102.518 119.828 103.532 120.207 104.41C121.454 104.332 122.664 104.089 123.813 103.702C124.965 103.313 126.228 103.32 127.366 103.749C132.33 105.619 138.111 105.008 142.691 101.616L159.027 89.5163C166.197 84.2056 167.704 74.0884 162.394 66.9184C159.901 63.5522 156.348 61.4346 152.539 60.6841Z" fill="#FDBD28"/>
<path d="M178.189 60.3657H151.786C141.183 60.3657 132.133 68.0246 130.378 78.4805L135.046 88.0425C134.602 90.6903 127.941 107.579 130.626 107.579H177.57C178.798 107.579 179.782 106.561 179.739 105.334L178.189 60.3657Z" fill="#FDBD28"/>
<path d="M200.863 103.058L187.111 65.4691C185.99 62.404 183.073 60.3657 179.81 60.3657C174.055 60.3657 170.279 66.4014 172.764 71.5917C177.162 80.7793 183.256 93.7375 187.208 103.076C187.64 104.096 187.218 105.258 186.314 105.896C174.419 114.275 167.017 139.774 165.979 143.668C164.975 147.433 161.416 156.539 160.889 157.882C160.844 157.997 160.821 158.112 160.816 158.234L160.573 164.807C160.559 165.163 160.722 165.502 161.006 165.716L161.323 165.953C161.967 166.436 162.895 166.074 163.041 165.283L164.044 159.869C164.067 159.742 164.114 159.62 164.18 159.508L166.562 155.538C166.718 155.279 167.117 155.43 167.062 155.728L166.016 161.375C165.991 161.508 165.992 161.644 166.017 161.777L167.215 168.007C167.289 168.393 167.566 168.708 167.938 168.832L168.236 168.931C168.97 169.176 169.717 168.596 169.662 167.824L169.249 162.047C169.24 161.915 169.254 161.783 169.292 161.656L170.608 157.287C170.695 156.999 171.117 157.045 171.139 157.345L171.387 160.775C171.399 160.945 171.451 161.109 171.539 161.255L175.073 167.146C175.313 167.547 175.783 167.749 176.239 167.647L176.607 167.566C177.282 167.415 177.646 166.682 177.358 166.054L175.022 160.956C174.963 160.828 174.93 160.69 174.924 160.549L174.816 157.942C174.802 157.606 175.29 157.55 175.353 157.88L175.642 159.398C175.708 159.743 175.937 160.035 176.256 160.181L181.071 162.388C181.689 162.671 182.412 162.324 182.576 161.665L182.629 161.452C182.734 161.033 182.58 160.592 182.238 160.328L179.654 158.341C179.412 158.155 179.26 157.875 179.235 157.571L179.037 155.194C179.015 154.936 179.093 154.68 179.255 154.478C181.044 152.241 181.18 149.104 179.591 146.721L179.546 146.652L200.628 106.57C201.199 105.485 201.284 104.209 200.863 103.058Z" fill="#7B371F"/>
<path d="M160.823 164.56C160.823 165.16 161.188 165.646 161.637 165.646C162.086 165.646 162.451 165.16 162.451 164.56C162.451 163.961 162.086 163.475 161.637 163.475C161.188 163.475 160.823 163.961 160.823 164.56Z" fill="#B6704F"/>
<path d="M167.335 167.274C167.335 167.874 167.7 168.359 168.149 168.359C168.599 168.359 168.963 167.874 168.963 167.274C168.963 166.674 168.599 166.188 168.149 166.188C167.7 166.188 167.335 166.674 167.335 167.274Z" fill="#B6704F"/>
<path d="M175.102 166.62C175.376 167.17 175.888 167.423 176.244 167.184C176.6 166.946 176.666 166.307 176.392 165.757C176.118 165.207 175.606 164.954 175.25 165.193C174.894 165.431 174.828 166.07 175.102 166.62Z" fill="#B6704F"/>
<path d="M180.748 161.771C181.342 161.961 181.892 161.783 181.977 161.376C182.062 160.968 181.65 160.484 181.057 160.295C180.463 160.106 179.913 160.283 179.828 160.691C179.743 161.098 180.155 161.582 180.748 161.771Z" fill="#B6704F"/>
<path d="M172.22 107.579H130.433V114.091C130.433 115.29 131.405 116.262 132.604 116.262H172.22V107.579Z" fill="#FDBD28"/>
<path fill-rule="evenodd" clip-rule="evenodd" d="M159.738 107.579H161.366V116.262H159.738V107.579ZM156.482 107.579H153.226V116.262H156.482V107.579ZM146.713 107.579H149.969V116.262H146.713V107.579ZM143.457 107.579H140.201V116.262H143.457V107.579ZM136.945 107.579H133.689V116.262H136.945V107.579Z" fill="#FDBD28"/>
<path d="M66.6994 66.4703L72.9855 68.4066C73.1029 68.4429 73.2106 68.4967 73.3095 68.5699C74.1129 69.1631 78.0742 72.0778 81.5702 74.4754C81.1018 72.8474 80.5449 69.1571 82.0644 67.4205C83.489 65.7925 84.7621 65.7925 85.7197 65.7925C86.6772 65.7925 85.8632 68.2346 85.3205 69.0486C84.9028 69.6754 86.1685 72.1272 86.4678 74.788C86.642 76.3379 86.8049 77.9404 87.5361 79.3178C88.6826 81.4776 88.5819 84.0869 87.2722 86.1518L87.0663 86.4763C85.4234 89.0665 82.2882 90.2897 79.3252 89.4958L79.2473 89.5218C76.5341 90.4401 73.5388 89.4963 71.8415 87.1894C71.6882 86.981 71.4609 86.8388 71.2063 86.7932L68.6955 86.3395C68.4942 86.3032 68.2867 86.3243 68.0971 86.4009L64.636 87.795C64.2591 87.947 63.8289 87.8759 63.5212 87.61L63.0324 87.1883C62.4995 86.7281 62.5388 85.8902 63.1125 85.4821L67.1469 82.6119C67.3529 82.4653 67.6037 82.3953 67.8559 82.4138L69.5649 82.5397C69.9002 82.5646 69.9723 82.0779 69.6442 82.0046L67.0983 81.4348C66.9608 81.4038 66.8187 81.4006 66.6798 81.4239L61.151 82.3611C60.4697 82.4767 59.8554 81.9346 59.8852 81.2443L59.9014 80.8682C59.9216 80.4015 60.2381 79.9999 60.6873 79.8713L67.2922 77.9817C67.4557 77.935 67.6281 77.9274 67.7952 77.9594L71.1724 78.6074C71.4682 78.6644 71.6224 78.2688 71.3664 78.1103L67.4863 75.7084C67.3741 75.6389 67.2501 75.5906 67.1205 75.5657L61.433 74.4689C60.6733 74.3224 60.3065 73.4508 60.7327 72.805L60.9057 72.5429C61.1219 72.2157 61.498 72.0301 61.8893 72.0583L68.2171 72.5136C68.3521 72.5234 68.4841 72.5581 68.6063 72.6167L73.7905 75.0881C74.0633 75.2183 74.3125 74.8721 74.1023 74.655L70.8839 71.3262C70.7938 71.2329 70.6877 71.1569 70.5707 71.101L65.6017 68.7317C64.8747 68.3849 64.7651 67.3956 65.3986 66.8985L65.7098 66.6537C65.9897 66.4345 66.3594 66.3656 66.6994 66.4703Z" fill="#7B371F"/>
<path fill-rule="evenodd" clip-rule="evenodd" d="M146.425 49.2853C145.222 47.1631 144.543 44.6322 144.543 41.9147C144.543 40.8662 144.854 40.1042 145.189 39.2842C145.502 38.5183 145.604 37.6912 145.699 36.8694C146.355 31.1882 151.508 28.3477 156.753 28.3477C163.354 28.3477 165.396 33.9086 166.864 37.9101C167.21 38.8493 167.523 39.7028 167.856 40.3781C168.153 40.9799 168.916 40.9116 169.249 40.3288C170.354 38.3961 173.305 39.1798 173.305 41.4059V43.0001C173.305 44.1989 172.333 45.1708 171.134 45.1708C169.965 45.1708 168.972 45.9884 168.55 47.079C168.508 47.1867 168.465 47.2938 168.421 47.4001V59.8233C168.421 64.619 164.534 68.5062 159.738 68.5062H158.344C155.489 68.5062 153.411 65.7966 154.151 63.0387L155.61 57.6091C155.362 57.6379 155.109 57.6525 154.854 57.6525C152.682 57.6525 150.758 56.5894 149.575 54.9549C148.765 53.8365 148.127 52.573 147.492 51.3172C147.144 50.6292 146.798 49.9435 146.425 49.2853Z" fill="#7B371F"/>
<path d="M154.311 38.6582L153.932 41.313C153.824 42.0692 153.578 42.7994 153.207 43.4672L152.373 44.9692C151.782 46.0334 152.551 47.3411 153.768 47.3411" stroke="black" stroke-width="1.08537"/>
<path d="M150.512 45.1704C150.512 45.7699 150.998 46.2558 151.598 46.2558H152.14" stroke="black" stroke-width="1.08537"/>
<path d="M155.396 46.2558C155.996 46.2558 156.482 45.7699 156.482 45.1704" stroke="black" stroke-width="1.08537"/>
<path d="M151.058 50.0985C151.101 49.7015 152.893 49.5647 153.337 50.5169C153.859 49.5647 156.814 49.1336 158.11 49.9206C156.584 51.3206 156.757 52.7678 153.569 52.7678C152.333 52.7678 151.809 51.579 151.678 50.9262C151.511 50.7568 151.014 50.4955 151.058 50.0985Z" fill="#FDBD28"/>
<path d="M156.482 40.2861C156.482 41.1853 157.211 41.9142 158.11 41.9142" stroke="black" stroke-width="1.08537"/>
<path d="M152.14 40.2861C152.14 41.1853 151.411 41.9142 150.512 41.9142" stroke="black" stroke-width="1.08537"/>
<path d="M162.994 38.6583C161.195 36.4876 158.28 36.4876 156.482 38.6583" stroke="black" stroke-width="1.08537"/>
<path d="M145.628 38.6583C147.427 36.4876 150.342 36.4876 152.14 38.6583" stroke="black" stroke-width="1.08537"/>
<path d="M157.567 39.7436C158.766 38.2964 160.71 38.2964 161.908 39.7436C160.172 41.6972 158.29 40.5576 157.567 39.7436Z" fill="white"/>
<path d="M146.713 39.7436C147.912 38.2964 149.856 38.2964 151.055 39.7436C149.318 41.6972 147.437 40.5576 146.713 39.7436Z" fill="white"/>
<path d="M159.738 40.8289C159.138 40.8289 158.652 40.343 158.652 39.7436C158.652 39.1441 159.138 38.6582 159.738 38.6582C160.337 38.6582 160.823 39.1441 160.823 39.7436C160.823 40.343 160.337 40.8289 159.738 40.8289Z" fill="black"/>
<path d="M148.884 40.8289C148.285 40.8289 147.799 40.343 147.799 39.7436C147.799 39.1441 148.285 38.6582 148.884 38.6582C149.484 38.6582 149.969 39.1441 149.969 39.7436C149.969 40.343 149.484 40.8289 148.884 40.8289Z" fill="black"/>
<path fill-rule="evenodd" clip-rule="evenodd" d="M163.565 45.5261L163.538 45.5998C163.509 45.6818 163.49 45.7671 163.48 45.8536C163.279 47.5277 162.558 49.0531 161.471 50.2819C161.046 50.7627 160.303 50.6598 159.854 50.2001C158.461 48.7699 156.483 47.8842 154.311 47.8842C152.253 47.8842 150.368 48.6796 148.991 49.98C148.53 50.415 147.797 50.4894 147.379 50.0126C146.185 48.6485 145.309 46.9318 144.838 44.9985C144.828 44.96 144.796 44.9312 144.757 44.9263C144.615 44.9085 144.472 44.9172 144.333 44.9518C143.818 45.0806 143.457 45.543 143.457 46.0736V50.055C143.457 50.574 143.7 51.0364 144.079 51.3345C144.55 51.7055 145.085 52.1689 145.085 52.7684V53.8537C145.085 54.7888 145.559 55.6137 146.279 56.1015C146.529 56.2709 146.713 56.5368 146.713 56.8385C146.713 61.1843 150.236 64.7074 154.582 64.7074C158.928 64.7074 162.451 61.1843 162.451 56.8385C162.451 56.673 162.6 56.5476 162.765 56.559C162.841 56.5644 162.917 56.5672 162.994 56.5672C164.792 56.5672 166.25 55.1095 166.25 53.3111V52.7684C166.25 52.1689 166.765 51.7055 167.291 51.4177C167.964 51.0491 168.421 50.334 168.421 49.5123V46.2562C168.421 45.0573 167.449 44.0854 166.25 44.0854H165.609C164.691 44.0854 163.873 44.6622 163.565 45.5261ZM151.116 52.6639C150.495 52.421 150.341 51.6378 150.866 51.2262C151.797 50.497 152.992 50.055 154.311 50.055C155.727 50.055 157.002 50.565 157.959 51.3934C158.462 51.8285 158.273 52.6002 157.643 52.8143C156.698 53.1358 155.678 53.3111 154.615 53.3111C153.363 53.3111 152.19 53.0835 151.116 52.6639Z" fill="black"/>
<path d="M112.524 94.012C102.096 95.5503 92.7165 81.8016 89.189 80.4449C85.6616 79.0882 82.1342 89.1279 82.1342 89.1279C82.1342 89.1279 98.5314 107.862 112.524 108.122C119.977 108.26 130.976 103.238 130.976 103.238L128.262 83.1583C128.262 83.1583 119.91 92.9225 112.524 94.012Z" fill="#7B371F"/>
<path d="M116.052 85.0579L132.875 72.8476L141.287 96.4543L127.448 105.137L116.052 85.0579Z" fill="#FDBD28"/>
<path d="M184.43 60.6372H178.189L176.561 85.0579L183.073 96.4543L196.098 85.0579L184.43 60.6372Z" fill="#FDBD28"/>
<g clip-path="url(#clip1_243_3900)">
<path d="M148.505 79.5186H147.794L147.555 78.8388H146.2L145.957 79.5186H145.268L146.438 76.3672H147.348L148.505 79.5188L148.505 79.5186ZM147.361 78.2896L146.884 76.9343L146.398 78.2896H147.361Z" fill="black"/>
<path d="M148.334 79.8521H148.505C148.649 79.8521 148.721 79.7847 148.721 79.645V77.2272H149.41V79.645C149.41 80.1582 149.113 80.4194 148.581 80.4194H148.334V79.8521ZM148.712 76.3854H149.423V76.9527H148.712V76.3853V76.3854Z" fill="black"/>
<path d="M149.712 78.3753C149.712 77.6685 150.216 77.1958 150.909 77.1958C151.603 77.1958 152.102 77.6685 152.102 78.3753C152.102 79.0822 151.598 79.5504 150.909 79.5504C150.22 79.5504 149.712 79.0822 149.712 78.3753ZM150.909 79.0192C151.22 79.0192 151.396 78.8031 151.396 78.3753C151.396 77.9476 151.22 77.727 150.909 77.727C150.599 77.727 150.423 77.9476 150.423 78.3753C150.423 78.8031 150.594 79.0192 150.909 79.0192Z" fill="black"/>
<path d="M152.292 77.9432C152.292 76.9798 152.917 76.3359 153.84 76.3359C154.57 76.3359 155.06 76.7546 155.227 77.421L154.534 77.5742C154.43 77.1781 154.201 76.9258 153.827 76.9258C153.345 76.9258 153.026 77.3219 153.026 77.9073C153.026 78.5601 153.35 78.9609 153.872 78.9609C154.214 78.9609 154.493 78.7583 154.565 78.3531L155.259 78.5152C155.096 79.114 154.583 79.5507 153.863 79.5507C152.899 79.5507 152.292 78.9339 152.292 77.9434V77.9432Z" fill="black"/>
<path d="M156.488 77.727C156.28 77.727 156.145 77.8306 156.055 78.0241L155.434 77.8801C155.569 77.5064 155.956 77.1958 156.537 77.1958C157.118 77.1958 157.5 77.4749 157.5 78.0288V79.5191H156.812V79.1275C156.645 79.3976 156.361 79.5508 156.024 79.5508C155.668 79.5508 155.344 79.3527 155.344 78.97C155.344 78.5467 155.623 78.3623 156.267 78.2991C156.668 78.2587 156.812 78.2045 156.812 78.0064C156.812 77.8307 156.686 77.7273 156.487 77.7273L156.488 77.727ZM156.334 79.0777C156.551 79.0777 156.803 78.9337 156.812 78.497C156.74 78.5644 156.623 78.6051 156.456 78.6231C156.19 78.6501 156.073 78.7131 156.073 78.8752C156.073 79.0103 156.186 79.0777 156.334 79.0777Z" fill="black"/>
<path d="M157.91 77.2273H158.599V77.9612C158.73 77.5245 158.977 77.1958 159.396 77.1958H159.405V77.8667C158.847 77.8667 158.599 78.0513 158.599 78.7357V79.5191H157.91V77.2273H157.91Z" fill="black"/>
<path d="M161.22 79.0504C161.103 79.334 160.877 79.5501 160.508 79.5501C159.945 79.5501 159.513 79.0909 159.513 78.357C159.513 77.6231 159.955 77.1954 160.472 77.1954C160.833 77.1954 161.085 77.4025 161.22 77.7265V76.3672H161.908V79.5186H161.22V79.0504ZM160.702 79.0279C161.022 79.0279 161.22 78.7803 161.22 78.3931C161.22 77.9834 161.017 77.7178 160.702 77.7178C160.414 77.7178 160.225 77.9654 160.225 78.357C160.225 78.7712 160.409 79.0279 160.702 79.0279Z" fill="black"/>
<path d="M143.262 79.7065H137.669C137.569 79.7065 137.488 79.7879 137.488 79.8881C137.488 79.9883 137.569 80.0697 137.669 80.0697H143.262C143.362 80.0697 143.443 79.9883 143.443 79.8881C143.443 79.7879 143.362 79.7065 143.262 79.7065Z" fill="black"/>
<path d="M137.769 78.3747L139.935 79.2058C140.105 79.2709 140.284 79.3034 140.463 79.3034C140.642 79.3034 140.822 79.2707 140.993 79.2054L143.155 78.3742C143.249 78.3382 143.295 78.2332 143.26 78.1396C143.224 78.0459 143.119 77.9992 143.025 78.035L140.863 78.8662C140.605 78.9648 140.322 78.9648 140.065 78.8664L137.899 78.0353C137.806 77.9996 137.7 78.0464 137.665 78.1402C137.629 78.2339 137.676 78.3389 137.77 78.3747H137.769Z" fill="black"/>
<path d="M138.463 77.286L139.901 78.3291C140.07 78.4514 140.267 78.5126 140.465 78.5126C140.662 78.5126 140.861 78.4511 141.03 78.3282L142.462 77.283C142.543 77.2239 142.561 77.1103 142.502 77.0293C142.443 76.9482 142.329 76.9304 142.248 76.9894L140.816 78.0346C140.607 78.1872 140.324 78.1875 140.115 78.0351L138.676 76.9921C138.595 76.9332 138.482 76.9513 138.423 77.0325C138.364 77.1137 138.382 77.2273 138.463 77.2862V77.286Z" fill="black"/>
<path d="M140.138 77.5187C140.201 77.6411 140.325 77.7167 140.462 77.7167C140.463 77.7167 140.464 77.7167 140.465 77.7167C140.604 77.7155 140.728 77.6373 140.789 77.5128L141.348 76.3662C141.392 76.276 141.355 76.1672 141.264 76.1232C141.174 76.0792 141.065 76.1168 141.021 76.2068L140.462 77.3534L139.874 76.2026C139.829 76.1134 139.719 76.0778 139.63 76.1234C139.541 76.169 139.505 76.2783 139.551 76.3678L140.138 77.5187H140.138Z" fill="black"/>
</g>
<path d="M177.104 59.5519C173.557 60.5059 170.32 66.0641 170.32 66.0641L188.229 68.5062L185.515 61.1799C185.515 61.1799 180.335 58.6827 177.104 59.5519Z" fill="#FDBD28"/>
<rect x="170.591" y="64.1646" width="11.3963" height="18.4512" fill="#FDBD28"/>
<path d="M156.21 113.006L179.546 103.238V105.68L156.21 115.177L130.433 110.293V108.393L156.21 113.006Z" fill="black"/>
<path d="M156.21 108.665L179.546 97.811V100.796L156.21 111.107L130.433 105.409V102.967L156.21 108.665Z" fill="black"/>
<rect x="178.732" y="88.0425" width="1.08537" height="7.59756" fill="#FDBD28"/>
<path d="M157.017 36H144.394C142.478 36 141.126 34.1234 141.731 32.3061C141.907 31.7805 142.233 31.3185 142.671 30.9783L145.62 28.6842C146.206 28.2289 146.752 27.7252 147.253 27.1784C150.222 23.9396 154.603 22.3828 158.95 23.0221L163.673 23.7166C166.925 24.1949 169.611 26.506 170.568 29.6511L171.705 33.3871C172.172 34.9227 171.534 36.5794 170.158 37.4052C168.641 38.3154 166.683 37.9497 165.597 36.5532L165.483 36.4065C164.581 35.2476 163.081 34.7297 161.657 35.0858L158.954 35.7616C158.32 35.9199 157.67 36 157.017 36Z" fill="black" stroke="#2E2E2E" stroke-width="0.2"/>
<g clip-path="url(#clip2_243_3900)">
<path d="M152.963 30.6163L152.589 30.557L152.592 30.1989L151.88 30.0861L151.623 30.404L151.261 30.3467L152.473 28.8763L152.952 28.952L152.963 30.6163L152.963 30.6163ZM152.595 29.9095L152.6 29.1956L152.088 29.8293L152.595 29.9095Z" fill="#FDBD28"/>
<path d="M152.81 30.7683L152.9 30.7825C152.976 30.7945 153.026 30.7669 153.053 30.6974L153.511 29.4946L153.873 29.5519L153.415 30.7548C153.318 31.0101 153.112 31.1154 152.833 31.0711L152.703 31.0505L152.81 30.7683ZM153.665 29.075L154.04 29.1343L153.932 29.4165L153.558 29.3573L153.666 29.075L153.665 29.075Z" fill="#FDBD28"/>
<path d="M153.814 30.1479C153.948 29.7962 154.303 29.603 154.667 29.6608C155.032 29.7185 155.205 29.9953 155.071 30.347C154.937 30.6986 154.584 30.8896 154.221 30.8322C153.859 30.7748 153.68 30.4995 153.814 30.1479ZM154.322 30.5679C154.485 30.5938 154.619 30.5009 154.7 30.2881C154.781 30.0753 154.73 29.9509 154.567 29.925C154.403 29.8992 154.269 29.9943 154.188 30.2071C154.107 30.4199 154.156 30.5417 154.322 30.5679Z" fill="#FDBD28"/>
<path d="M155.252 30.1478C155.435 29.6685 155.886 29.4003 156.371 29.4771C156.755 29.5379 156.933 29.787 156.895 30.1324L156.501 30.1509C156.522 29.9452 156.449 29.8006 156.252 29.7695C155.999 29.7293 155.756 29.8998 155.645 30.191C155.522 30.5158 155.616 30.7422 155.891 30.7857C156.071 30.8142 156.256 30.7367 156.37 30.5411L156.704 30.6794C156.506 30.9638 156.153 31.1384 155.774 31.0784C155.268 30.9982 155.065 30.6406 155.252 30.1479L155.252 30.1478Z" fill="#FDBD28"/>
<path d="M157.5 30.3898C157.391 30.3725 157.3 30.4128 157.216 30.5016L156.917 30.3782C157.059 30.2035 157.321 30.0813 157.626 30.1296C157.932 30.178 158.08 30.3487 157.975 30.6243L157.693 31.3657L157.331 31.3084L157.405 31.1135C157.266 31.2341 157.088 31.2866 156.91 31.2585C156.723 31.2289 156.59 31.1034 156.663 30.913C156.743 30.7024 156.925 30.6338 157.275 30.656C157.494 30.6693 157.58 30.6543 157.617 30.5558C157.65 30.4684 157.604 30.4064 157.5 30.3899L157.5 30.3898ZM157.163 31.049C157.277 31.067 157.437 31.0164 157.524 30.7999C157.474 30.8274 157.404 30.8379 157.313 30.833C157.169 30.8243 157.095 30.8459 157.064 30.9265C157.039 30.9937 157.085 31.0367 157.163 31.049Z" fill="#FDBD28"/>
<path d="M158.342 30.2598L158.705 30.3172L158.566 30.6823C158.717 30.4759 158.909 30.333 159.129 30.3679L159.134 30.3686L159.007 30.7024C158.714 30.6559 158.548 30.7271 158.419 31.0676L158.27 31.4574L157.908 31.4L158.342 30.2598L158.342 30.2598Z" fill="#FDBD28"/>
<path d="M159.737 31.4424C159.622 31.5737 159.462 31.6625 159.268 31.6317C158.972 31.5849 158.832 31.3204 158.971 30.9553C159.11 30.5902 159.423 30.4141 159.695 30.4572C159.885 30.4872 159.978 30.6113 159.988 30.7837L160.245 30.1074L160.607 30.1648L160.01 31.7327L159.648 31.6753L159.737 31.4424ZM159.469 31.388C159.637 31.4147 159.788 31.308 159.861 31.1153C159.939 30.9115 159.883 30.7625 159.717 30.7362C159.566 30.7122 159.419 30.8197 159.345 31.0145C159.267 31.2206 159.315 31.3637 159.469 31.388Z" fill="#FDBD28"/>
<path d="M150.171 30.2733L147.23 29.8076C147.178 29.7992 147.12 29.833 147.101 29.8828C147.082 29.9327 147.109 29.9799 147.162 29.9883L150.102 30.454C150.155 30.4623 150.213 30.4286 150.232 30.3788C150.251 30.3289 150.223 30.2816 150.171 30.2733Z" fill="#FDBD28"/>
<path d="M147.535 29.1535L148.516 29.7473C148.594 29.7938 148.682 29.8249 148.776 29.8399C148.87 29.8548 148.971 29.8534 149.073 29.8352L150.367 29.6017C150.423 29.5916 150.467 29.5432 150.466 29.4937C150.465 29.4441 150.419 29.4121 150.363 29.4221L149.069 29.6556C148.915 29.6832 148.766 29.6596 148.649 29.5892L147.668 28.9954C147.625 28.9698 147.561 28.9844 147.525 29.0281C147.488 29.0717 147.493 29.1279 147.535 29.1535L147.535 29.1535Z" fill="#FDBD28"/>
<path d="M148.106 28.6692L148.665 29.3078C148.73 29.3828 148.823 29.4297 148.926 29.4461C149.03 29.4626 149.146 29.4485 149.259 29.4014L150.209 29.0007C150.263 28.978 150.294 28.923 150.278 28.8778C150.263 28.8325 150.206 28.8142 150.152 28.8368L149.202 29.2375C149.063 29.296 148.914 29.2727 148.833 29.1794L148.274 28.5407C148.243 28.5047 148.179 28.5042 148.133 28.5397C148.087 28.5752 148.075 28.6332 148.106 28.6693L148.106 28.6692Z" fill="#FDBD28"/>
<path d="M148.943 28.9246C148.953 28.9907 149.003 29.0386 149.076 29.0501C149.076 29.0501 149.077 29.0502 149.077 29.0503C149.151 29.0613 149.23 29.0327 149.286 28.9758L149.797 28.4519C149.837 28.4107 149.838 28.3535 149.799 28.3241C149.76 28.2947 149.696 28.3043 149.656 28.3454L149.145 28.8693L149.053 28.2478C149.046 28.1996 148.996 28.1728 148.94 28.1881C148.884 28.2033 148.845 28.2547 148.852 28.3031L148.943 28.9246L148.943 28.9246Z" fill="#FDBD28"/>
</g>
</g>
<g clip-path="url(#clip3_243_3900)">
<mask id="mask0_243_3900" style="mask-type:luminance" maskUnits="userSpaceOnUse" x="0" y="117" width="125" height="135">
<path d="M124.062 117.25H0.605103V251.571H124.062V117.25Z" fill="white"/>
</mask>
<g mask="url(#mask0_243_3900)">
<path d="M62.9186 190.618L85.0494 117.25H49.247C49.247 117.25 40.3581 130.336 41.3457 144.657C42.243 157.67 45.3833 176.676 45.9492 183.3C46.0119 184.035 45.2529 184.512 44.5625 184.253C30.2336 178.883 19.4144 202.781 13.4445 220.213L19.6173 226.139L60.7398 193.811C61.7768 192.996 62.5378 191.881 62.9186 190.618Z" fill="#7B371F"/>
<path d="M103.806 179.76C103.762 175.863 103.491 163.287 101.84 155.028C99.8643 145.151 91.9631 117.25 91.9631 117.25H69.9878C69.9878 126.006 70.9261 146.364 74.6791 157.744L81.9057 179.657C82.1164 180.295 81.6289 180.951 80.9705 181.089C69.6179 183.473 77.7315 216.739 80.1113 236.015H90.2348L103.528 182.119C103.719 181.345 103.815 180.557 103.806 179.76Z" fill="#7B371F"/>
<path d="M92.1919 117.25H48.5779C48.3754 117.25 48.1833 117.337 48.05 117.49C42.772 123.544 39.8643 131.305 39.8643 139.336V159.719C39.8643 160.81 40.7488 161.694 41.8396 161.694H92.9882C93.4091 161.694 93.7838 161.428 93.9215 161.03L95.1114 157.592C95.4023 156.752 96.5688 156.694 96.9415 157.501L98.6118 161.121C98.7733 161.47 99.1234 161.694 99.5086 161.694H102.232C103.529 161.694 104.475 160.464 104.14 159.21L93.1462 117.983C93.0309 117.551 92.6394 117.25 92.1919 117.25Z" fill="#FAB921"/>
<path d="M4.71725 218.269C6.53058 216.456 8.52663 214.836 10.6743 213.435L14.6619 210.834C17.1997 209.18 20.616 210.179 21.8615 212.941L22.9884 215.439C23.2521 216.024 23.9943 216.206 24.499 215.81L25.6397 214.914C27.2121 213.678 29.46 213.813 30.8738 215.227L32.0565 216.409C33.3005 217.654 33.5721 219.571 32.7222 221.111L30.0827 225.895C29.1365 227.61 29.099 229.682 29.9824 231.431L35.4861 242.321C36.256 243.844 35.9602 245.689 34.7538 246.896L30.8397 250.81C30.0684 251.582 28.818 251.582 28.0466 250.81L1.50787 224.271C0.736511 223.5 0.736511 222.25 1.50787 221.478L4.71725 218.269Z" fill="black"/>
<path d="M3.60322 219.383L30.8398 246.62C31.2254 247.006 31.2254 247.631 30.8398 248.016L30.1415 248.715C29.7558 249.1 29.1306 249.1 28.745 248.715L1.50792 221.478L3.60322 219.383Z" fill="black"/>
<path d="M30.5405 229.558L25.2531 228.461L30.8397 231.254L26.2007 231.504" stroke="#FAB921" stroke-width="0.502779" stroke-linejoin="bevel"/>
<path d="M76.1606 245.057C76.1606 242.493 76.4268 239.936 76.9552 237.426L77.9359 232.768C78.5601 229.803 81.6821 228.094 84.5158 229.167L87.0795 230.137C87.6795 230.364 88.3332 229.967 88.4097 229.331L88.5825 227.89C88.8208 225.904 90.5052 224.41 92.505 224.41H94.1774C95.937 224.41 97.4845 225.574 97.9728 227.264L99.4892 232.513C100.033 234.395 101.471 235.887 103.333 236.499L114.925 240.307C116.546 240.84 117.642 242.354 117.642 244.061V249.595C117.642 250.686 116.758 251.571 115.667 251.571H78.1359C77.0451 251.571 76.1606 250.686 76.1606 249.595V245.057Z" fill="black"/>
<path d="M76.1607 246.631H114.679C115.225 246.631 115.667 247.073 115.667 247.619V248.607C115.667 249.152 115.225 249.594 114.679 249.594H76.1607V246.631Z" fill="black"/>
<path d="M102.404 234.78L97.8891 237.743L103.815 235.768L100.711 239.225" stroke="#FAB921" stroke-width="0.502779" stroke-linejoin="bevel"/>
</g>
<path d="M50.4673 101.939H90.3289C90.3289 110.334 91.9626 117.248 91.9626 117.248H49.4935L49.5508 117.046C50.9464 112.136 51.2589 106.981 50.4673 101.939Z" fill="#7B371F"/>
<path d="M48.9998 66.3813H69.9193C79.3934 66.3813 87.5334 73.1078 89.3187 82.412L92.5433 99.2169C93.0107 101.653 91.1439 103.912 88.6635 103.912H50.9751C49.8842 103.912 48.9998 103.028 48.9998 101.937V66.3813Z" fill="#FAB921"/>
<path d="M48.9998 97.4945C50.9643 97.4945 52.8487 95.9079 54.2378 93.0832C55.627 90.2585 56.4072 86.4274 56.4072 82.4328C56.4072 78.4383 55.627 74.6071 54.2378 71.7825C52.8487 68.9578 50.9643 67.3711 48.9998 67.3711V82.4328V97.4945Z" fill="#FDBD28"/>
<path d="M29.8488 105.229L42.3624 71.0248C43.3831 68.2357 46.0369 66.3809 49.0068 66.3809C54.2429 66.3809 57.6789 71.8732 55.4182 76.5962C51.4162 84.9567 45.871 96.7483 42.274 105.247C41.8814 106.174 42.2651 107.232 43.0883 107.812C53.912 115.437 60.6478 138.64 61.5925 142.183C62.5061 145.609 65.7446 153.896 66.2241 155.118C66.2651 155.222 66.2858 155.327 66.2903 155.439L66.5115 161.42C66.5238 161.743 66.3762 162.052 66.1174 162.247L65.829 162.462C65.2428 162.902 64.3989 162.573 64.2656 161.852L63.3535 156.927C63.3317 156.81 63.2898 156.699 63.229 156.598L61.0616 152.985C60.9199 152.75 60.5569 152.887 60.6068 153.158L61.5584 158.296C61.5811 158.417 61.5806 158.542 61.5574 158.663L60.467 164.331C60.3999 164.683 60.148 164.969 59.8093 165.082L59.5387 165.172C58.8705 165.395 58.191 164.867 58.2409 164.165L58.6167 158.908C58.6251 158.788 58.6117 158.668 58.5772 158.553L57.3796 154.576C57.3006 154.314 56.9169 154.357 56.8972 154.63L56.671 157.751C56.6601 157.905 56.6127 158.055 56.5332 158.188L53.3169 163.548C53.0982 163.913 52.6705 164.096 52.2557 164.004L51.9209 163.93C51.307 163.793 50.9752 163.126 51.2374 162.554L53.3633 157.915C53.4167 157.799 53.4473 157.673 53.4522 157.545L53.551 155.173C53.5638 154.867 53.1194 154.816 53.0621 155.117L52.7989 156.497C52.7391 156.811 52.5307 157.077 52.2404 157.21L47.8586 159.219C47.2967 159.476 46.6389 159.16 46.4893 158.56L46.4409 158.367C46.3456 157.985 46.4853 157.584 46.7969 157.344L49.148 155.536C49.3683 155.367 49.507 155.112 49.5298 154.835L49.71 152.672C49.7298 152.438 49.6586 152.205 49.5115 152.02C47.8833 149.985 47.7594 147.13 49.2053 144.962L49.2468 144.899L30.0626 108.425C29.5431 107.438 29.4656 106.277 29.8488 105.229Z" fill="#7B371F"/>
<path d="M66.2838 161.197C66.2838 161.742 65.952 162.184 65.5431 162.184C65.1342 162.184 64.8023 161.742 64.8023 161.197C64.8023 160.651 65.1342 160.209 65.5431 160.209C65.952 160.209 66.2838 160.651 66.2838 161.197Z" fill="#FAC798"/>
<path d="M60.3579 163.667C60.3579 164.213 60.0261 164.655 59.6172 164.655C59.2083 164.655 58.8764 164.213 58.8764 163.667C58.8764 163.121 59.2083 162.679 59.6172 162.679C60.0261 162.679 60.3579 163.121 60.3579 163.667Z" fill="#FAC798"/>
<path d="M53.2906 163.071C53.0407 163.572 52.5756 163.802 52.2516 163.585C51.9277 163.368 51.8669 162.787 52.1163 162.286C52.3662 161.786 52.8314 161.556 53.1553 161.773C53.4793 161.989 53.54 162.571 53.2906 163.071Z" fill="#FAC798"/>
<path d="M48.1523 158.658C47.6121 158.831 47.1118 158.669 47.0343 158.298C46.9573 157.927 47.3321 157.487 47.8718 157.315C48.4121 157.143 48.9123 157.304 48.9898 157.675C49.0669 158.046 48.6921 158.486 48.1523 158.658Z" fill="#FAC798"/>
<path d="M82.7009 22.118C83.198 22.5831 84.0337 22.7351 84.6287 22.4041C85.3651 21.9943 86.2127 21.7609 87.1146 21.7609C89.9493 21.7609 92.2474 24.0664 92.2474 26.9104C92.2474 27.7652 92.0398 28.5713 91.6725 29.2808C91.613 29.3957 91.699 29.5377 91.8284 29.5377C94.8367 29.5377 97.2755 31.9843 97.2755 35.0024C97.2755 35.9569 97.0316 36.8541 96.6029 37.635C96.1734 38.4174 96.5191 39.8658 97.2416 40.3898C98.5313 41.3252 99.3705 42.8471 99.3705 44.5657C99.3705 45.7748 98.9551 46.8866 98.2598 47.7652C97.8651 48.264 97.862 49.028 98.1959 49.5694C98.5421 50.1309 98.742 50.7929 98.742 51.5018C98.742 52.7934 98.0784 53.9296 97.0745 54.5858C96.6026 54.8942 96.3074 55.4684 96.3863 56.0267C96.42 56.2651 96.4374 56.5087 96.4374 56.7563C96.4374 59.6003 94.1394 61.9058 91.3047 61.9058C90.6521 61.9058 90.028 61.7834 89.4538 61.5607C88.8844 61.3399 88.1926 61.531 87.8188 62.014C86.8798 63.2268 85.412 64.0076 83.7625 64.0076C83.5693 64.0076 83.3786 63.9967 83.1909 63.976C82.6705 63.9182 82.1453 64.1794 81.8842 64.6338C80.9431 66.2693 79.1813 67.3705 77.1631 67.3705C74.7226 67.3705 72.6564 65.7597 71.9641 63.5399C71.8055 63.0323 71.3409 62.6496 70.8095 62.6831C70.1409 62.7251 69.4653 62.7463 68.7833 62.7463C64.813 62.7463 61.0544 62.0209 57.7023 60.7257C57.3888 60.6047 57.0381 60.6481 56.7483 60.8172C55.7902 61.376 54.6772 61.6955 53.4895 61.6955C50.9646 61.6955 48.7764 60.2502 47.7018 58.1391C47.4707 57.6851 46.9725 57.4127 46.4653 57.4619C46.2604 57.4818 46.0525 57.492 45.8426 57.492C42.3137 57.492 39.453 54.6219 39.453 51.0814C39.453 50.7514 39.4776 50.4272 39.5255 50.1107C39.608 49.5667 39.3102 49.017 38.8465 48.7206C37.8253 48.0676 37.1483 46.9215 37.1483 45.6166C37.1483 44.8453 37.3848 44.1294 37.7893 43.538C38.1073 43.073 38.1586 42.4307 37.8702 41.9465C37.412 41.1756 37.1483 40.2742 37.1483 39.3112C37.1483 37.1378 38.4905 35.2788 40.3883 34.523C40.9646 34.2936 41.3443 33.662 41.3384 33.0418C41.3384 33.0298 41.3384 33.0177 41.3384 33.0057C41.3384 31.7871 41.929 30.707 42.8386 30.0377C43.3092 29.6913 43.5794 29.0699 43.4302 28.5048C43.2954 27.9961 43.2238 27.4616 43.2238 26.9104C43.2238 23.486 45.9907 20.71 49.4041 20.71C49.9883 20.71 50.5532 20.7913 51.089 20.9432C51.6031 21.089 52.169 20.8831 52.5221 20.4821C53.1937 19.7195 54.1759 19.2387 55.2702 19.2387C55.3804 19.2387 55.4895 19.2436 55.5976 19.2532C56.2618 19.3121 56.9967 18.9301 57.3285 18.3517C57.9616 17.2489 59.1483 16.5063 60.5078 16.5063C61.5957 16.5063 62.5734 16.9819 63.2446 17.7371C63.6984 18.2476 64.5216 18.4771 65.1468 18.2012C65.7789 17.9223 66.4771 17.7674 67.212 17.7674C67.8238 17.7674 68.411 17.8749 68.9557 18.0722C69.4085 18.2364 69.929 18.1363 70.288 17.8146C71.1957 17.001 72.3932 16.5063 73.7063 16.5063C75.9764 16.5063 77.9023 17.9847 78.5794 20.034C78.7927 20.679 79.5216 21.1303 80.201 21.1303C81.1671 21.1303 82.046 21.5053 82.7009 22.118Z" fill="black"/>
<path fill-rule="evenodd" clip-rule="evenodd" d="M79.3862 56.2998C80.4803 54.3687 81.0988 52.0656 81.0988 49.5927C81.0988 48.6386 80.8154 47.9452 80.5105 47.199C80.2257 46.5021 80.1335 45.7494 80.0471 45.0016C79.4494 39.8319 74.761 37.2471 69.9876 37.2471C63.9807 37.2471 62.123 42.3074 60.7867 45.9486C60.4726 46.8033 60.1876 47.5799 59.8844 48.1944C59.6138 48.7421 58.9195 48.6799 58.6163 48.1496C57.6114 46.3909 54.9259 47.1041 54.9259 49.1297V50.5804C54.9259 51.6713 55.8104 52.5557 56.9012 52.5557C57.9654 52.5557 58.8686 53.2997 59.2528 54.2921C59.2909 54.3901 59.3299 54.4876 59.3704 54.5843V65.889C59.3704 70.253 62.9076 73.7903 67.2716 73.7903H68.5397C71.1383 73.7903 73.0291 71.3246 72.3551 68.815L71.0276 63.8742C71.2538 63.9004 71.4834 63.9137 71.716 63.9137C73.6923 63.9137 75.443 62.9463 76.5195 61.4589C77.2563 60.4413 77.8375 59.2915 78.4148 58.1487C78.7313 57.5227 79.0469 56.8987 79.3862 56.2998Z" fill="#7B371F"/>
<path d="M72.2099 46.6313L72.5551 49.0471C72.6534 49.7353 72.8766 50.3997 73.2144 51.0074L73.9739 52.3742C74.5117 53.3426 73.8114 54.5326 72.7038 54.5326" stroke="black" stroke-width="0.502779"/>
<path d="M75.6666 52.5566C75.6666 53.1021 75.2247 53.5443 74.679 53.5443H74.1851" stroke="black" stroke-width="0.502779"/>
<path d="M71.2223 53.5443C70.6766 53.5443 70.2346 53.1021 70.2346 52.5566" stroke="black" stroke-width="0.502779"/>
<path d="M72.5869 56.0444L73.5617 56.5421C73.6422 56.5831 73.7399 56.567 73.8086 56.5085C73.9656 56.3747 74.213 56.1928 74.4135 56.0731C74.4787 56.0343 74.5607 56.0391 74.6199 56.0866C75.4915 56.7853 75.2367 58.0025 74.5207 58.6624C74.933 59.4317 74.5207 60.4573 72.9553 60.4573C71.3898 60.4573 69.0827 58.6624 68.7533 57.7222C69.5256 56.7875 71.4955 56.2113 72.4575 56.0255C72.5014 56.017 72.5464 56.0239 72.5869 56.0444Z" fill="#C61800"/>
<path d="M70.2346 48.1113C70.2346 48.9296 69.5714 49.5928 68.7531 49.5928" stroke="black" stroke-width="0.502779"/>
<path d="M74.1853 48.1113C74.1853 48.9296 74.8485 49.5928 75.6667 49.5928" stroke="black" stroke-width="0.502779"/>
<path d="M64.3087 46.6299C65.9452 44.6546 68.5981 44.6546 70.2346 46.6299" stroke="black" stroke-width="0.502779"/>
<path d="M80.1112 46.6304C78.4747 44.6551 75.8218 44.6551 74.1853 46.6304" stroke="black" stroke-width="0.502779"/>
<path d="M69.2471 47.618C68.1562 46.3011 66.3873 46.3011 65.2965 47.618C66.8767 49.3958 68.5888 48.3588 69.2471 47.618Z" fill="black"/>
<path d="M79.1235 47.618C78.0327 46.3011 76.2638 46.3011 75.1729 47.618C76.7532 49.3958 78.4653 48.3588 79.1235 47.618Z" fill="black"/>
<path d="M67.2716 48.6057C67.8171 48.6057 68.2592 48.1635 68.2592 47.618C68.2592 47.0726 67.8171 46.6304 67.2716 46.6304C66.7261 46.6304 66.2839 47.0726 66.2839 47.618C66.2839 48.1635 66.7261 48.6057 67.2716 48.6057Z" fill="black"/>
<path d="M77.1482 48.6057C77.6936 48.6057 78.1358 48.1635 78.1358 47.618C78.1358 47.0726 77.6936 46.6304 77.1482 46.6304C76.6027 46.6304 76.1605 47.0726 76.1605 47.618C76.1605 48.1635 76.6027 48.6057 77.1482 48.6057Z" fill="black"/>
</g>
<defs>
<clipPath id="clip0_243_3900">
<rect width="178" height="263.744" fill="white" transform="translate(55 0.12793)"/>
</clipPath>
<clipPath id="clip1_243_3900">
<rect width="24.4207" height="4.31579" fill="white" transform="translate(137.488 76.1035)"/>
</clipPath>
<clipPath id="clip2_243_3900">
<rect width="13" height="2.29745" fill="white" transform="matrix(0.987688 0.156434 -0.35576 0.934578 147.817 28)"/>
</clipPath>
<clipPath id="clip3_243_3900">
<rect width="128.395" height="240" fill="white" transform="matrix(-1 0 0 1 129 11.5684)"/>
</clipPath>
</defs>
</svg>
