<svg width="178" height="241" viewBox="0 0 178 241" fill="none" xmlns="http://www.w3.org/2000/svg">
<path d="M115.173 219.827H89.4936V226.741H115.173V219.827Z" fill="#FAB921"/>
<path d="M30.2344 131.186C47.2221 126.84 67.107 130.692 74.9258 133.161C57.3949 125.507 41.3455 112.42 32.9505 106.741C54.432 107.729 67.0246 113.902 83.0739 126.495C71.4196 116.618 56.3248 90.2807 50.2344 78.3464C56.9836 81.7207 74.2344 93.7044 89.2468 114.643C78.3826 92.9143 79.2878 74.1488 81.0986 67.4822C83.0739 75.6303 99.1233 102.297 101.592 122.05C101.592 96.1241 108.506 67.7291 109.247 64.7661C115.42 72.9143 112.457 113.655 110.728 125.013C116.654 94.9883 138.547 81.0624 149 74.6427C146.531 77.6056 140.704 86.4945 137.148 98.3464C133.592 110.198 123.897 122.133 117.889 130.692C121.428 128.387 126.531 119.334 137.148 111.68C148.084 103.796 163.485 100.816 171.963 98.3464C165.626 102.955 153.642 115.482 146.531 125.754C139.42 136.025 128.506 137.112 120.358 140.075C126.366 139.663 132.309 142.89 146.531 139.334C160.753 135.778 173.033 139.581 177.395 141.062C168.424 146.083 146.728 156.124 131.716 156.124C116.704 156.124 106.201 151.68 102.827 149.457C96.3248 152.667 80.8023 159.087 70.7283 159.087C58.1357 159.087 40.111 154.89 30.9752 156.124C39.3702 150.445 52.4567 146.495 76.9011 146.001C60.111 145.26 38.8764 137.853 30.2344 131.186Z" fill="#49C018"/>
<path d="M102.086 147.728L119.407 162.913H84.7658L102.086 147.728Z" fill="black"/>
<path d="M102.086 162.543L119.407 177.729H84.7659L102.086 162.543Z" fill="black"/>
<path d="M102.086 177.358L119.407 192.544H84.7659L102.086 177.358Z" fill="black"/>
<path d="M134.432 191.185C134.432 199.698 131.05 207.862 125.03 213.882C119.011 219.902 110.846 223.283 102.333 223.283C93.8201 223.283 85.6557 219.902 79.6359 213.882C73.6162 207.862 70.2344 199.698 70.2344 191.185H102.333H134.432Z" fill="#FAB921"/>
<g clip-path="url(#clip0_242_3325)">
<mask id="mask0_242_3325" style="mask-type:luminance" maskUnits="userSpaceOnUse" x="5" y="106" width="124" height="135">
<path d="M5.54267 106.25H128.999V240.571H5.54267V106.25Z" fill="white"/>
</mask>
<g mask="url(#mask0_242_3325)">
<path d="M66.6859 179.618L44.5551 106.25H80.3576C80.3576 106.25 89.2464 119.336 88.2588 133.657C87.3615 146.67 84.2213 165.676 83.6553 172.3C83.5926 173.035 84.3516 173.512 85.042 173.253C99.3709 167.883 110.19 191.781 116.16 209.213L109.987 215.139L68.8647 182.811C67.8277 181.996 67.0667 180.881 66.6859 179.618Z" fill="#7B371F"/>
<path d="M25.7982 168.76C25.8425 164.863 26.1131 152.287 27.7649 144.028C29.7402 134.151 37.6415 106.25 37.6415 106.25H59.6168C59.6168 115.006 58.6785 135.364 54.9254 146.744L47.6988 168.657C47.4881 169.295 47.9757 169.951 48.6341 170.089C59.9866 172.473 51.8731 205.739 49.4933 225.015H39.3698L26.0769 171.119C25.886 170.345 25.7892 169.557 25.7982 168.76Z" fill="#7B371F"/>
<path d="M37.4127 106.25H81.0267C81.2292 106.25 81.4213 106.337 81.5546 106.49C86.8326 112.544 89.7403 120.305 89.7403 128.336V148.719C89.7403 149.81 88.8558 150.694 87.765 150.694H36.6164C36.1954 150.694 35.8208 150.428 35.6831 150.03L34.4932 146.592C34.2023 145.752 33.0358 145.694 32.6631 146.501L30.9928 150.121C30.8313 150.47 30.4812 150.694 30.096 150.694H27.3731C26.0752 150.694 25.1301 149.464 25.4645 148.21L36.4584 106.983C36.5737 106.551 36.9652 106.25 37.4127 106.25Z" fill="#FAB921"/>
<path d="M124.887 207.269C123.074 205.456 121.078 203.836 118.93 202.435L114.943 199.834C112.405 198.18 108.989 199.179 107.743 201.941L106.616 204.439C106.353 205.024 105.61 205.206 105.106 204.81L103.965 203.914C102.393 202.678 100.145 202.813 98.7308 204.227L97.5481 205.409C96.3042 206.654 96.0325 208.571 96.8824 210.111L99.5219 214.895C100.468 216.61 100.506 218.682 99.6222 220.431L94.1185 231.321C93.3486 232.844 93.6444 234.689 94.8508 235.896L98.7649 239.81C99.5362 240.582 100.787 240.582 101.558 239.81L128.097 213.271C128.868 212.5 128.868 211.25 128.097 210.478L124.887 207.269Z" fill="black"/>
<path d="M126.001 208.383L98.7649 235.62C98.3792 236.006 98.3792 236.631 98.7649 237.016L99.4631 237.715C99.8488 238.1 100.474 238.1 100.86 237.715L128.097 210.478L126.001 208.383Z" fill="black"/>
<path d="M99.0641 218.558L104.352 217.461L98.7649 220.254L103.404 220.504" stroke="#FAB921" stroke-width="0.502779" stroke-linejoin="bevel"/>
<path d="M53.444 234.057C53.444 231.493 53.1778 228.936 52.6494 226.426L51.6687 221.768C51.0445 218.803 47.9224 217.094 45.0888 218.167L42.5251 219.137C41.9251 219.364 41.2713 218.967 41.1949 218.331L41.022 216.89C40.7838 214.904 39.0994 213.41 37.0996 213.41H35.4272C33.6676 213.41 32.1201 214.574 31.6318 216.264L30.1154 221.513C29.5717 223.395 28.1331 224.887 26.2721 225.499L14.6799 229.307C13.0585 229.84 11.9625 231.354 11.9625 233.061V238.595C11.9625 239.686 12.8469 240.571 13.9378 240.571H51.4687C52.5595 240.571 53.444 239.686 53.444 238.595V234.057Z" fill="black"/>
<path d="M53.4439 235.631H14.9254C14.3799 235.631 13.9377 236.073 13.9377 236.619V237.607C13.9377 238.152 14.3799 238.594 14.9254 238.594H53.4439V235.631Z" fill="black"/>
<path d="M27.2005 223.78L31.7155 226.743L25.7896 224.768L28.8936 228.225" stroke="#FAB921" stroke-width="0.502779" stroke-linejoin="bevel"/>
</g>
<path d="M79.1371 90.939H39.2756C39.2756 99.334 37.6418 106.248 37.6418 106.248H80.1109L80.0537 106.046C78.6581 101.136 78.3455 95.9814 79.1371 90.939Z" fill="#7B371F"/>
<path d="M80.6047 55.3813H59.6852C50.2111 55.3813 42.0711 62.1078 40.2858 71.412L37.0612 88.2169C36.5938 90.653 38.4606 92.9122 40.941 92.9122H78.6294C79.7203 92.9122 80.6047 92.0278 80.6047 90.9369V55.3813Z" fill="#FAB921"/>
<path d="M80.6046 86.4945C78.6402 86.4945 76.7557 84.9079 75.3666 82.0832C73.9775 79.2585 73.1972 75.4274 73.1972 71.4328C73.1972 67.4383 73.9775 63.6071 75.3666 60.7825C76.7557 57.9578 78.6402 56.3711 80.6046 56.3711V71.4328V86.4945Z" fill="#FDBD28"/>
<path d="M99.7557 94.2292L87.2421 60.0248C86.2214 57.2357 83.5676 55.3809 80.5977 55.3809C75.3616 55.3809 71.9256 60.8732 74.1863 65.5962C78.1883 73.9567 83.7335 85.7483 87.3305 94.2465C87.7231 95.1744 87.3394 96.2317 86.5162 96.812C75.6925 104.437 68.9567 127.64 68.012 131.183C67.0984 134.609 63.8599 142.896 63.3804 144.118C63.3394 144.222 63.3187 144.327 63.3142 144.439L63.093 150.42C63.0807 150.743 63.2283 151.052 63.4871 151.247L63.7755 151.462C64.3616 151.902 65.2056 151.573 65.3389 150.852L66.251 145.927C66.2728 145.81 66.3147 145.699 66.3755 145.598L68.5429 141.985C68.6846 141.75 69.0476 141.887 68.9977 142.158L68.0461 147.296C68.0234 147.417 68.0239 147.542 68.0471 147.663L69.1374 153.331C69.2046 153.683 69.4565 153.969 69.7952 154.082L70.0658 154.172C70.734 154.395 71.4135 153.867 71.3636 153.165L70.9878 147.908C70.9794 147.788 70.9928 147.668 71.0273 147.553L72.2249 143.576C72.3039 143.314 72.6876 143.357 72.7073 143.63L72.9335 146.751C72.9444 146.905 72.9918 147.055 73.0713 147.188L76.2876 152.548C76.5063 152.913 76.934 153.096 77.3488 153.004L77.6836 152.93C78.2974 152.793 78.6293 152.126 78.3671 151.554L76.2412 146.915C76.1878 146.799 76.1572 146.673 76.1523 146.545L76.0535 144.173C76.0407 143.867 76.4851 143.816 76.5424 144.117L76.8056 145.497C76.8654 145.811 77.0737 146.077 77.3641 146.21L81.7458 148.219C82.3078 148.476 82.9656 148.16 83.1152 147.56L83.1636 147.367C83.2589 146.985 83.1192 146.584 82.8076 146.344L80.4565 144.536C80.2362 144.367 80.0974 144.112 80.0747 143.835L79.8945 141.672C79.8747 141.438 79.9458 141.205 80.093 141.02C81.7212 138.985 81.8451 136.13 80.3992 133.962L80.3577 133.899L99.5419 97.4253C100.061 96.4381 100.139 95.2772 99.7557 94.2292Z" fill="#7B371F"/>
<path d="M63.3207 150.197C63.3207 150.742 63.6525 151.184 64.0614 151.184C64.4703 151.184 64.8022 150.742 64.8022 150.197C64.8022 149.651 64.4703 149.209 64.0614 149.209C63.6525 149.209 63.3207 149.651 63.3207 150.197Z" fill="#FAC798"/>
<path d="M69.2466 152.667C69.2466 153.213 69.5785 153.655 69.9874 153.655C70.3962 153.655 70.7281 153.213 70.7281 152.667C70.7281 152.121 70.3962 151.679 69.9874 151.679C69.5785 151.679 69.2466 152.121 69.2466 152.667Z" fill="#FAC798"/>
<path d="M76.3139 152.071C76.5638 152.572 77.0289 152.802 77.3529 152.585C77.6768 152.368 77.7376 151.787 77.4882 151.286C77.2383 150.786 76.7731 150.556 76.4492 150.773C76.1252 150.989 76.0645 151.571 76.3139 152.071Z" fill="#FAC798"/>
<path d="M81.4522 147.658C81.9924 147.831 82.4926 147.669 82.5702 147.298C82.6472 146.927 82.2724 146.487 81.7326 146.315C81.1924 146.143 80.6922 146.304 80.6146 146.675C80.5376 147.046 80.9124 147.486 81.4522 147.658Z" fill="#FAC798"/>
<path d="M46.9036 11.118C46.4065 11.5831 45.5708 11.7351 44.9759 11.4041C44.2394 10.9943 43.3918 10.7609 42.49 10.7609C39.6552 10.7609 37.3571 13.0664 37.3571 15.9104C37.3571 16.7652 37.5647 17.5713 37.9321 18.2808C37.9916 18.3957 37.9056 18.5377 37.7761 18.5377C34.7678 18.5377 32.3291 20.9843 32.3291 24.0024C32.3291 24.9569 32.573 25.8541 33.0016 26.635C33.4312 27.4174 33.0855 28.8658 32.3629 29.3898C31.0732 30.3252 30.2341 31.8471 30.2341 33.5657C30.2341 34.7748 30.6494 35.8866 31.3448 36.7652C31.7395 37.264 31.7426 38.028 31.4087 38.5694C31.0624 39.1309 30.8626 39.7929 30.8626 40.5018C30.8626 41.7934 31.5262 42.9296 32.53 43.5858C33.002 43.8942 33.2971 44.4684 33.2182 45.0267C33.1845 45.2651 33.1671 45.5087 33.1671 45.7563C33.1671 48.6003 35.4651 50.9058 38.2999 50.9058C38.9525 50.9058 39.5766 50.7834 40.1508 50.5607C40.7201 50.3399 41.4119 50.531 41.7858 51.014C42.7248 52.2268 44.1925 53.0076 45.842 53.0076C46.0353 53.0076 46.226 52.9967 46.4137 52.976C46.9341 52.9182 47.4592 53.1794 47.7203 53.6337C48.6615 55.2693 50.4232 56.3705 52.4415 56.3705C54.882 56.3705 56.9481 54.7597 57.6405 52.5399C57.799 52.0323 58.2637 51.6496 58.7951 51.6831C59.4637 51.7251 60.1393 51.7463 60.8212 51.7463C64.7916 51.7463 68.5501 51.0209 71.9022 49.7257C72.2158 49.6047 72.5664 49.6481 72.8563 49.8172C73.8143 50.376 74.9274 50.6955 76.1151 50.6955C78.64 50.6955 80.8281 49.2502 81.9027 47.1391C82.1338 46.6851 82.6321 46.4127 83.1393 46.4619C83.3442 46.4818 83.5521 46.492 83.762 46.492C87.2909 46.492 90.1516 43.6219 90.1516 40.0814C90.1516 39.7514 90.1269 39.4272 90.079 39.1107C89.9965 38.5667 90.2943 38.017 90.758 37.7206C91.7793 37.0676 92.4563 35.9215 92.4563 34.6166C92.4563 33.8453 92.2197 33.1294 91.8153 32.538C91.4973 32.073 91.4459 31.4307 91.7343 30.9465C92.1926 30.1756 92.4563 29.2742 92.4563 28.3112C92.4563 26.1378 91.1141 24.2788 89.2163 23.523C88.64 23.2936 88.2602 22.662 88.2662 22.0418C88.2662 22.0298 88.2662 22.0177 88.2662 22.0057C88.2662 20.7871 87.6756 19.707 86.7659 19.0377C86.2953 18.6913 86.0252 18.0699 86.1743 17.5048C86.3091 16.9961 86.3807 16.4616 86.3807 15.9104C86.3807 12.486 83.6138 9.71 80.2005 9.71C79.6163 9.71 79.0514 9.79129 78.5156 9.94319C78.0015 10.089 77.4355 9.88309 77.0825 9.48205C76.4109 8.71953 75.4286 8.23874 74.3343 8.23874C74.2242 8.23874 74.1151 8.24363 74.0069 8.25316C73.3427 8.31212 72.6079 7.93005 72.276 7.35173C71.643 6.24887 70.4563 5.50635 69.0968 5.50635C68.0089 5.50635 67.0311 5.98185 66.36 6.73706C65.9062 7.24763 65.083 7.47706 64.4578 7.20116C63.8257 6.9223 63.1274 6.76743 62.3926 6.76743C61.7807 6.76743 61.1936 6.87494 60.6489 7.07222C60.196 7.23642 59.6755 7.13632 59.3165 6.81459C58.4089 6.00097 57.2114 5.50635 55.8983 5.50635C53.6281 5.50635 51.7022 6.98467 51.0252 9.034C50.8118 9.67899 50.083 10.1303 49.4035 10.1303C48.4374 10.1303 47.5586 10.5053 46.9036 11.118Z" fill="black"/>
<path fill-rule="evenodd" clip-rule="evenodd" d="M50.2184 45.2998C49.1242 43.3687 48.5058 41.0656 48.5058 38.5927C48.5058 37.6386 48.7891 36.9452 49.0941 36.199C49.3789 35.5021 49.471 34.7494 49.5575 34.0016C50.1552 28.8319 54.8435 26.2471 59.6169 26.2471C65.6238 26.2471 67.4816 31.3074 68.8179 34.9486C69.1319 35.8033 69.4169 36.5799 69.7201 37.1944C69.9907 37.7421 70.685 37.6799 70.9882 37.1496C71.9932 35.3909 74.6786 36.1041 74.6786 38.1297V39.5804C74.6786 40.6713 73.7942 41.5557 72.7033 41.5557C71.6391 41.5557 70.7359 42.2997 70.3517 43.2921C70.3137 43.3901 70.2747 43.4876 70.2342 43.5843V54.889C70.2342 59.253 66.6969 62.7903 62.3329 62.7903H61.0648C58.4663 62.7903 56.5754 60.3246 57.2495 57.815L58.5769 52.8742C58.3507 52.9004 58.1211 52.9137 57.8885 52.9137C55.9122 52.9137 54.1616 51.9463 53.085 50.4589C52.3482 49.4413 51.767 48.2915 51.1897 47.1487C50.8732 46.5227 50.5576 45.8987 50.2184 45.2998Z" fill="#7B371F"/>
<path d="M57.3946 35.6313L57.0494 38.0471C56.9511 38.7353 56.7279 39.3997 56.3901 40.0074L55.6306 41.3742C55.0929 42.3426 55.7931 43.5326 56.9008 43.5326" stroke="black" stroke-width="0.502779"/>
<path d="M53.9379 41.5566C53.9379 42.1021 54.3799 42.5443 54.9256 42.5443H55.4194" stroke="black" stroke-width="0.502779"/>
<path d="M58.3822 42.5443C58.9279 42.5443 59.3699 42.1021 59.3699 41.5566" stroke="black" stroke-width="0.502779"/>
<path d="M57.0177 45.0444L56.0429 45.5421C55.9624 45.5831 55.8646 45.567 55.796 45.5085C55.639 45.3747 55.3916 45.1928 55.1911 45.0731C55.1259 45.0343 55.0439 45.0391 54.9846 45.0866C54.113 45.7853 54.3679 47.0025 55.0839 47.6624C54.6716 48.4317 55.0839 49.4573 56.6493 49.4573C58.2148 49.4573 60.5219 47.6624 60.8513 46.7222C60.079 45.7875 58.1091 45.2113 57.1471 45.0255C57.1032 45.017 57.0582 45.0239 57.0177 45.0444Z" fill="#C61800"/>
<path d="M59.3699 37.1113C59.3699 37.9296 60.0331 38.5928 60.8514 38.5928" stroke="black" stroke-width="0.502779"/>
<path d="M55.4193 37.1113C55.4193 37.9296 54.7561 38.5928 53.9378 38.5928" stroke="black" stroke-width="0.502779"/>
<path d="M65.2958 35.6299C63.6593 33.6546 61.0064 33.6546 59.3699 35.6299" stroke="black" stroke-width="0.502779"/>
<path d="M49.4933 35.6304C51.1299 33.6551 53.7827 33.6551 55.4193 35.6304" stroke="black" stroke-width="0.502779"/>
<path d="M60.3575 36.618C61.4484 35.3011 63.2173 35.3011 64.3082 36.618C62.7279 38.3958 61.0158 37.3588 60.3575 36.618Z" fill="black"/>
<path d="M50.481 36.618C51.5719 35.3011 53.3407 35.3011 54.4316 36.618C52.8514 38.3958 51.1393 37.3588 50.481 36.618Z" fill="black"/>
<path d="M62.333 37.6057C61.7875 37.6057 61.3453 37.1635 61.3453 36.618C61.3453 36.0726 61.7875 35.6304 62.333 35.6304C62.8784 35.6304 63.3206 36.0726 63.3206 36.618C63.3206 37.1635 62.8784 37.6057 62.333 37.6057Z" fill="black"/>
<path d="M52.4564 37.6057C51.9109 37.6057 51.4688 37.1635 51.4688 36.618C51.4688 36.0726 51.9109 35.6304 52.4564 35.6304C53.0019 35.6304 53.4441 36.0726 53.4441 36.618C53.4441 37.1635 53.0019 37.6057 52.4564 37.6057Z" fill="black"/>
</g>
<defs>
<clipPath id="clip0_242_3325">
<rect width="128.395" height="240" fill="white" transform="translate(0.604797 0.568359)"/>
</clipPath>
</defs>
</svg>
